<svg xmlns="http://www.w3.org/2000/svg" xmlns:xlink="http://www.w3.org/1999/xlink" font-size="10px" font-family="sans-serif" fill="none" stroke="none" stroke-width="1.5" width="343" height="150">
     <g transform="translate(50,10)">
          <g transform="translate(3.6712328767123283,0)">
               <rect y="79.16016434943022" width="1.529680365296804" height="20.839835650569782" fill="rgb(31,119,180)"/>
               <rect x="1.529680365296804" y="56.811270620715476" width="1.529680365296804" height="43.18872937928452" fill="rgb(174,199,232)"/>
               <rect x="3.059360730593608" y="33.84246329389268" width="1.529680365296804" height="66.15753670610732" fill="rgb(255,127,14)"/>
               <rect x="4.589041095890412" y="9.440541429003304" width="1.529680365296804" height="90.5594585709967" fill="rgb(255,187,120)"/>
          </g>
          <g transform="translate(3.6712328767123283,0)">
               <text pointer-events="none" y="3" dy=".71em" transform="translate(9.178082191780824,115) rotate(29.999999999999996)" fill="rgb(0,0,0)" text-anchor="middle" style="font:9px sans-serif">hhd</text>
          </g>
          <g transform="translate(25.698630136986303,0)">
               <rect y="79.22853201072101" width="1.529680365296804" height="20.77146798927899" fill="rgb(31,119,180)"/>
               <rect x="1.529680365296804" y="56.725929033993836" width="1.529680365296804" height="43.274070966006164" fill="rgb(174,199,232)"/>
               <rect x="3.059360730593608" y="33.49968236332077" width="1.529680365296804" height="66.50031763667923" fill="rgb(255,127,14)"/>
               <rect x="4.589041095890412" y="9.090909090909093" width="1.529680365296804" height="90.9090909090909" fill="rgb(255,187,120)"/>
          </g>
          <g transform="translate(25.698630136986303,0)">
               <text pointer-events="none" y="3" dy=".71em" transform="translate(9.178082191780824,115) rotate(29.999999999999996)" fill="rgb(0,0,0)" text-anchor="middle" style="font:9px sans-serif">hhn</text>
          </g>
          <g transform="translate(47.72602739726028,0)">
               <rect y="79.72545690896162" width="1.529680365296804" height="20.27454309103838" fill="rgb(31,119,180)"/>
               <rect x="1.529680365296804" y="59.257953285576264" width="1.529680365296804" height="40.74204671442373" fill="rgb(174,199,232)"/>
               <rect x="3.059360730593608" y="37.72688264638877" width="1.529680365296804" height="62.27311735361123" fill="rgb(255,127,14)"/>
               <rect x="4.589041095890412" y="14.274414880414113" width="1.529680365296804" height="85.72558511958589" fill="rgb(255,187,120)"/>
          </g>
          <g transform="translate(47.72602739726028,0)">
               <text pointer-events="none" y="3" dy=".71em" transform="translate(9.178082191780824,115) rotate(29.999999999999996)" fill="rgb(0,0,0)" text-anchor="middle" style="font:9px sans-serif">hhi</text>
          </g>
          <g transform="translate(69.75342465753425,0)">
               <rect y="79.92934684754567" width="1.529680365296804" height="20.070653152454334" fill="rgb(31,119,180)"/>
               <rect x="1.529680365296804" y="59.845767601423205" width="1.529680365296804" height="40.154232398576795" fill="rgb(174,199,232)"/>
               <rect x="3.059360730593608" y="39.713715113469085" width="1.529680365296804" height="60.286284886530915" fill="rgb(255,127,14)"/>
               <rect x="4.589041095890412" y="19.30629484455517" width="1.529680365296804" height="80.69370515544483" fill="rgb(255,187,120)"/>
          </g>
          <g transform="translate(69.75342465753425,0)">
               <text pointer-events="none" y="3" dy=".71em" transform="translate(9.178082191780824,115) rotate(29.999999999999996)" fill="rgb(0,0,0)" text-anchor="middle" style="font:9px sans-serif">hli</text>
          </g>
          <g transform="translate(91.78082191780823,0)">
               <rect y="79.6163871304728" width="1.529680365296804" height="20.383612869527198" fill="rgb(31,119,180)"/>
               <rect x="1.529680365296804" y="57.78153340763936" width="1.529680365296804" height="42.218466592360635" fill="rgb(174,199,232)"/>
               <rect x="3.059360730593608" y="35.930423487224914" width="1.529680365296804" height="64.06957651277509" fill="rgb(255,127,14)"/>
               <rect x="4.589041095890412" y="13.809245952088872" width="1.529680365296804" height="86.19075404791113" fill="rgb(255,187,120)"/>
          </g>
          <g transform="translate(91.78082191780823,0)">
               <text pointer-events="none" y="3" dy=".71em" transform="translate(9.178082191780824,115) rotate(29.999999999999996)" fill="rgb(0,0,0)" text-anchor="middle" style="font:9px sans-serif">hld</text>
          </g>
          <g transform="translate(113.8082191780822,0)">
               <rect y="79.92502151892504" width="1.529680365296804" height="20.07497848107497" fill="rgb(31,119,180)"/>
               <rect x="1.529680365296804" y="59.77580647463955" width="1.529680365296804" height="40.224193525360455" fill="rgb(174,199,232)"/>
               <rect x="3.059360730593608" y="39.67994832724874" width="1.529680365296804" height="60.32005167275126" fill="rgb(255,127,14)"/>
               <rect x="4.589041095890412" y="19.262795458436727" width="1.529680365296804" height="80.73720454156327" fill="rgb(255,187,120)"/>
          </g>
          <g transform="translate(113.8082191780822,0)">
               <text pointer-events="none" y="3" dy=".71em" transform="translate(9.178082191780824,115) rotate(29.999999999999996)" fill="rgb(0,0,0)" text-anchor="middle" style="font:9px sans-serif">hmi</text>
          </g>
          <g transform="translate(135.8356164383562,0)">
               <rect y="79.83618514391583" width="1.529680365296804" height="20.163814856084166" fill="rgb(31,119,180)"/>
               <rect x="1.529680365296804" y="59.45121663585786" width="1.529680365296804" height="40.548783364142146" fill="rgb(174,199,232)"/>
               <rect x="3.059360730593608" y="38.76958662802087" width="1.529680365296804" height="61.23041337197913" fill="rgb(255,127,14)"/>
               <rect x="4.589041095890412" y="17.636364807298875" width="1.529680365296804" height="82.36363519270112" fill="rgb(255,187,120)"/>
          </g>
          <g transform="translate(135.8356164383562,0)">
               <text pointer-events="none" y="3" dy=".71em" transform="translate(9.178082191780824,115) rotate(29.999999999999996)" fill="rgb(0,0,0)" text-anchor="middle" style="font:9px sans-serif">hmd</text>
          </g>
          <g transform="translate(157.86301369863017,0)">
               <rect y="79.84106744758816" width="1.529680365296804" height="20.158932552411837" fill="rgb(31,119,180)"/>
               <rect x="1.529680365296804" y="59.578105708967755" width="1.529680365296804" height="40.421894291032245" fill="rgb(174,199,232)"/>
               <rect x="3.059360730593608" y="39.214188982734775" width="1.529680365296804" height="60.785811017265225" fill="rgb(255,127,14)"/>
               <rect x="4.589041095890412" y="18.752764177758124" width="1.529680365296804" height="81.24723582224188" fill="rgb(255,187,120)"/>
          </g>
          <g transform="translate(157.86301369863017,0)">
               <text pointer-events="none" y="3" dy=".71em" transform="translate(9.178082191780824,115) rotate(29.999999999999996)" fill="rgb(0,0,0)" text-anchor="middle" style="font:9px sans-serif">mmi</text>
          </g>
          <g transform="translate(179.89041095890414,0)">
               <rect y="79.87151678437283" width="1.529680365296804" height="20.128483215627163" fill="rgb(31,119,180)"/>
               <rect x="1.529680365296804" y="59.762648588608485" width="1.529680365296804" height="40.237351411391515" fill="rgb(174,199,232)"/>
               <rect x="3.059360730593608" y="39.60820996315714" width="1.529680365296804" height="60.39179003684286" fill="rgb(255,127,14)"/>
               <rect x="4.589041095890412" y="19.51276384134738" width="1.529680365296804" height="80.48723615865262" fill="rgb(255,187,120)"/>
          </g>
          <g transform="translate(179.89041095890414,0)">
               <text pointer-events="none" y="3" dy=".71em" transform="translate(9.178082191780824,115) rotate(29.999999999999996)" fill="rgb(0,0,0)" text-anchor="middle" style="font:9px sans-serif">mmd</text>
          </g>
          <g transform="translate(201.9178082191781,0)">
               <rect y="79.87545499577415" width="1.529680365296804" height="20.124545004225848" fill="rgb(31,119,180)"/>
               <rect x="1.529680365296804" y="59.74729309794459" width="1.529680365296804" height="40.25270690205541" fill="rgb(174,199,232)"/>
               <rect x="3.059360730593608" y="39.61364196846109" width="1.529680365296804" height="60.38635803153891" fill="rgb(255,127,14)"/>
               <rect x="4.589041095890412" y="19.4753916428008" width="1.529680365296804" height="80.5246083571992" fill="rgb(255,187,120)"/>
          </g>
          <g transform="translate(201.9178082191781,0)">
               <text pointer-events="none" y="3" dy=".71em" transform="translate(9.178082191780824,115) rotate(29.999999999999996)" fill="rgb(0,0,0)" text-anchor="middle" style="font:9px sans-serif">llp</text>
          </g>
          <g transform="translate(223.94520547945208,0)">
               <rect y="79.85422560384643" width="1.529680365296804" height="20.145774396153566" fill="rgb(31,119,180)"/>
               <rect x="1.529680365296804" y="59.6572465624954" width="1.529680365296804" height="40.342753437504605" fill="rgb(174,199,232)"/>
               <rect x="3.059360730593608" y="39.456312939621185" width="1.529680365296804" height="60.543687060378815" fill="rgb(255,127,14)"/>
               <rect x="4.589041095890412" y="19.038286533237084" width="1.529680365296804" height="80.96171346676292" fill="rgb(255,187,120)"/>
          </g>
          <g transform="translate(223.94520547945208,0)">
               <text pointer-events="none" y="3" dy=".71em" transform="translate(9.178082191780824,115) rotate(29.999999999999996)" fill="rgb(0,0,0)" text-anchor="middle" style="font:9px sans-serif">lld</text>
          </g>
          <g transform="translate(245.97260273972606,0)">
               <rect y="79.87413326863252" width="1.529680365296804" height="20.125866731367477" fill="rgb(31,119,180)"/>
               <rect x="1.529680365296804" y="59.75446047653756" width="1.529680365296804" height="40.24553952346244" fill="rgb(174,199,232)"/>
               <rect x="3.059360730593608" y="39.6297116677241" width="1.529680365296804" height="60.3702883322759" fill="rgb(255,127,14)"/>
               <rect x="4.589041095890412" y="19.505524739066146" width="1.529680365296804" height="80.49447526093385" fill="rgb(255,187,120)"/>
          </g>
          <g transform="translate(245.97260273972606,0)">
               <text pointer-events="none" y="3" dy=".71em" transform="translate(9.178082191780824,115) rotate(29.999999999999996)" fill="rgb(0,0,0)" text-anchor="middle" style="font:9px sans-serif">lli</text>
          </g>
     </g>
     <g transform="translate(50,10)">
          <text pointer-events="none" dy=".35em" transform="translate(-40,60.0) rotate(-90.0)" fill="rgb(0,0,0)" text-anchor="middle" style="font:9px sans-serif">Percent Overhead</text>
     </g>
     <g transform="translate(50,10)">
          <line shape-rendering="crispEdges" x1="0" y1="100.0" x2="288" y2="100.0" stroke="rgb(0,0,0)" stroke-width="1"/>
          <line shape-rendering="crispEdges" x1="0" y1="79.87565717633551" x2="288" y2="79.87565717633551" stroke="rgb(255,255,255)" stroke-opacity="0.3" stroke-width="1"/>
          <line shape-rendering="crispEdges" x1="0" y1="59.75131435267101" x2="288" y2="59.75131435267101" stroke="rgb(255,255,255)" stroke-opacity="0.3" stroke-width="1"/>
          <line shape-rendering="crispEdges" x1="0" y1="39.62697152900651" x2="288" y2="39.62697152900651" stroke="rgb(255,255,255)" stroke-opacity="0.3" stroke-width="1"/>
          <line shape-rendering="crispEdges" x1="0" y1="19.50262870534202" x2="288" y2="19.50262870534202" stroke="rgb(255,255,255)" stroke-opacity="0.3" stroke-width="1"/>
     </g>
     <g transform="translate(50,10)">
          <line shape-rendering="crispEdges" x1="0" y1="100.0" x2="10" y2="100.0" stroke="rgb(0,0,0)" stroke-width="1"/>
          <line shape-rendering="crispEdges" x1="0" y1="79.87565717633551" x2="10" y2="79.87565717633551" stroke="rgb(0,0,0)" stroke-width="1"/>
          <line shape-rendering="crispEdges" x1="0" y1="59.75131435267101" x2="10" y2="59.75131435267101" stroke="rgb(0,0,0)" stroke-width="1"/>
          <line shape-rendering="crispEdges" x1="0" y1="39.62697152900651" x2="10" y2="39.62697152900651" stroke="rgb(0,0,0)" stroke-width="1"/>
          <line shape-rendering="crispEdges" x1="0" y1="19.50262870534202" x2="10" y2="19.50262870534202" stroke="rgb(0,0,0)" stroke-width="1"/>
     </g>
     <g transform="translate(50,10)">
          <text pointer-events="none" x="-3" dy=".35em" transform="translate(0,100.0)" fill="rgb(0,0,0)" text-anchor="end">0</text>
          <text pointer-events="none" x="-3" dy=".35em" transform="translate(0,79.87565717633551)" fill="rgb(0,0,0)" text-anchor="end">2</text>
          <text pointer-events="none" x="-3" dy=".35em" transform="translate(0,59.75131435267101)" fill="rgb(0,0,0)" text-anchor="end">4</text>
          <text pointer-events="none" x="-3" dy=".35em" transform="translate(0,39.62697152900651)" fill="rgb(0,0,0)" text-anchor="end">6</text>
          <text pointer-events="none" x="-3" dy=".35em" transform="translate(0,19.50262870534202)" fill="rgb(0,0,0)" text-anchor="end">8</text>
     </g>
     <g transform="translate(50,10)">
          <circle fill="rgb(31,119,180)" stroke="rgb(31,119,180)" cx="270" cy="85" r="4.47213595499958"/>
          <circle fill="rgb(174,199,232)" stroke="rgb(31,119,180)" cx="270" cy="75" r="4.47213595499958"/>
          <circle fill="rgb(255,127,14)" stroke="rgb(31,119,180)" cx="270" cy="65" r="4.47213595499958"/>
          <circle fill="rgb(255,187,120)" stroke="rgb(31,119,180)" cx="270" cy="55" r="4.47213595499958"/>
     </g>
     <g transform="translate(50,10)">
          <text pointer-events="none" x="-3" dy=".35em" transform="translate(288,85)" fill="rgb(0,0,0)" text-anchor="end">2</text>
          <text pointer-events="none" x="-3" dy=".35em" transform="translate(288,75)" fill="rgb(0,0,0)" text-anchor="end">4</text>
          <text pointer-events="none" x="-3" dy=".35em" transform="translate(288,65)" fill="rgb(0,0,0)" text-anchor="end">6</text>
          <text pointer-events="none" x="-3" dy=".35em" transform="translate(288,55)" fill="rgb(0,0,0)" text-anchor="end">8</text>
     </g>
</svg>
