<svg xmlns="http://www.w3.org/2000/svg" xmlns:xlink="http://www.w3.org/1999/xlink" font-size="10px" font-family="sans-serif" fill="none" stroke="none" stroke-width="1.5" width="343" height="150">
     <g transform="translate(50,10)">
          <g transform="translate(3.6712328767123283,0)">
               <rect y="78.0390802506701" width="1.529680365296804" height="21.9609197493299" fill="rgb(31,119,180)"/>
               <rect x="1.529680365296804" y="57.54117755398096" width="1.529680365296804" height="42.45882244601905" fill="rgb(174,199,232)"/>
               <rect x="3.059360730593608" y="37.571347483955385" width="1.529680365296804" height="62.428652516044615" fill="rgb(255,127,14)"/>
               <rect x="4.589041095890412" y="18.81706425029192" width="1.529680365296804" height="81.18293574970808" fill="rgb(255,187,120)"/>
          </g>
          <g transform="translate(3.6712328767123283,0)">
               <text pointer-events="none" y="3" dy=".71em" transform="translate(9.178082191780824,115) rotate(29.999999999999996)" fill="rgb(0,0,0)" text-anchor="middle" style="font:9px sans-serif">hhd</text>
          </g>
          <g transform="translate(25.698630136986303,0)">
               <rect y="77.97162863597062" width="1.529680365296804" height="22.02837136402938" fill="rgb(31,119,180)"/>
               <rect x="1.529680365296804" y="57.65194653479492" width="1.529680365296804" height="42.34805346520508" fill="rgb(174,199,232)"/>
               <rect x="3.059360730593608" y="38.003880818419766" width="1.529680365296804" height="61.996119181580234" fill="rgb(255,127,14)"/>
               <rect x="4.589041095890412" y="19.376339026598714" width="1.529680365296804" height="80.62366097340129" fill="rgb(255,187,120)"/>
          </g>
          <g transform="translate(25.698630136986303,0)">
               <text pointer-events="none" y="3" dy=".71em" transform="translate(9.178082191780824,115) rotate(29.999999999999996)" fill="rgb(0,0,0)" text-anchor="middle" style="font:9px sans-serif">hhn</text>
          </g>
          <g transform="translate(47.72602739726028,0)">
               <rect y="77.44393845241991" width="1.529680365296804" height="22.556061547580082" fill="rgb(31,119,180)"/>
               <rect x="1.529680365296804" y="55.10153478385509" width="1.529680365296804" height="44.89846521614491" fill="rgb(174,199,232)"/>
               <rect x="3.059360730593608" y="33.90688067013784" width="1.529680365296804" height="66.09311932986216" fill="rgb(255,127,14)"/>
               <rect x="4.589041095890412" y="14.646001438645342" width="1.529680365296804" height="85.35399856135466" fill="rgb(255,187,120)"/>
          </g>
          <g transform="translate(47.72602739726028,0)">
               <text pointer-events="none" y="3" dy=".71em" transform="translate(9.178082191780824,115) rotate(29.999999999999996)" fill="rgb(0,0,0)" text-anchor="middle" style="font:9px sans-serif">hhi</text>
          </g>
          <g transform="translate(69.75342465753425,0)">
               <rect y="77.21463734821978" width="1.529680365296804" height="22.78536265178022" fill="rgb(31,119,180)"/>
               <rect x="1.529680365296804" y="54.44401827440156" width="1.529680365296804" height="45.55598172559844" fill="rgb(174,199,232)"/>
               <rect x="3.059360730593608" y="31.728536081144256" width="1.529680365296804" height="68.27146391885574" fill="rgb(255,127,14)"/>
               <rect x="4.589041095890412" y="9.323180706432254" width="1.529680365296804" height="90.67681929356775" fill="rgb(255,187,120)"/>
          </g>
          <g transform="translate(69.75342465753425,0)">
               <text pointer-events="none" y="3" dy=".71em" transform="translate(9.178082191780824,115) rotate(29.999999999999996)" fill="rgb(0,0,0)" text-anchor="middle" style="font:9px sans-serif">hli</text>
          </g>
          <g transform="translate(91.78082191780823,0)">
               <rect y="77.56130521991875" width="1.529680365296804" height="22.438694780081253" fill="rgb(31,119,180)"/>
               <rect x="1.529680365296804" y="56.58729772902035" width="1.529680365296804" height="43.41270227097966" fill="rgb(174,199,232)"/>
               <rect x="3.059360730593608" y="35.57012372112442" width="1.529680365296804" height="64.42987627887558" fill="rgb(255,127,14)"/>
               <rect x="4.589041095890412" y="14.77977778265452" width="1.529680365296804" height="85.22022221734548" fill="rgb(255,187,120)"/>
          </g>
          <g transform="translate(91.78082191780823,0)">
               <text pointer-events="none" y="3" dy=".71em" transform="translate(9.178082191780824,115) rotate(29.999999999999996)" fill="rgb(0,0,0)" text-anchor="middle" style="font:9px sans-serif">hld</text>
          </g>
          <g transform="translate(113.8082191780822,0)">
               <rect y="77.2194657530741" width="1.529680365296804" height="22.780534246925903" fill="rgb(31,119,180)"/>
               <rect x="1.529680365296804" y="54.52346707953214" width="1.529680365296804" height="45.476532920467854" fill="rgb(174,199,232)"/>
               <rect x="3.059360730593608" y="31.766844925436416" width="1.529680365296804" height="68.23315507456358" fill="rgb(255,127,14)"/>
               <rect x="4.589041095890412" y="9.371439534128413" width="1.529680365296804" height="90.62856046587159" fill="rgb(255,187,120)"/>
          </g>
          <g transform="translate(113.8082191780822,0)">
               <text pointer-events="none" y="3" dy=".71em" transform="translate(9.178082191780824,115) rotate(29.999999999999996)" fill="rgb(0,0,0)" text-anchor="middle" style="font:9px sans-serif">hmi</text>
          </g>
          <g transform="translate(135.8356164383562,0)">
               <rect y="77.32007032007488" width="1.529680365296804" height="22.679929679925127" fill="rgb(31,119,180)"/>
               <rect x="1.529680365296804" y="54.887539949817665" width="1.529680365296804" height="45.11246005018233" fill="rgb(174,199,232)"/>
               <rect x="3.059360730593608" y="32.78020779666086" width="1.529680365296804" height="67.21979220333914" fill="rgb(255,127,14)"/>
               <rect x="4.589041095890412" y="11.152298315106009" width="1.529680365296804" height="88.84770168489399" fill="rgb(255,187,120)"/>
          </g>
          <g transform="translate(135.8356164383562,0)">
               <text pointer-events="none" y="3" dy=".71em" transform="translate(9.178082191780824,115) rotate(29.999999999999996)" fill="rgb(0,0,0)" text-anchor="middle" style="font:9px sans-serif">hmd</text>
          </g>
          <g transform="translate(157.86301369863017,0)">
               <rect y="77.31457613130299" width="1.529680365296804" height="22.68542386869701" fill="rgb(31,119,180)"/>
               <rect x="1.529680365296804" y="54.74589763882011" width="1.529680365296804" height="45.254102361179896" fill="rgb(174,199,232)"/>
               <rect x="3.059360730593608" y="32.289653433356165" width="1.529680365296804" height="67.71034656664384" fill="rgb(255,127,14)"/>
               <rect x="4.589041095890412" y="9.941271085799713" width="1.529680365296804" height="90.05872891420029" fill="rgb(255,187,120)"/>
          </g>
          <g transform="translate(157.86301369863017,0)">
               <text pointer-events="none" y="3" dy=".71em" transform="translate(9.178082191780824,115) rotate(29.999999999999996)" fill="rgb(0,0,0)" text-anchor="middle" style="font:9px sans-serif">mmi</text>
          </g>
          <g transform="translate(179.89041095890414,0)">
               <rect y="77.28026315189605" width="1.529680365296804" height="22.719736848103945" fill="rgb(31,119,180)"/>
               <rect x="1.529680365296804" y="54.538375338387" width="1.529680365296804" height="45.461624661612994" fill="rgb(174,199,232)"/>
               <rect x="3.059360730593608" y="31.847945328598144" width="1.529680365296804" height="68.15205467140186" fill="rgb(255,127,14)"/>
               <rect x="4.589041095890412" y="9.090909090909093" width="1.529680365296804" height="90.9090909090909" fill="rgb(255,187,120)"/>
          </g>
          <g transform="translate(179.89041095890414,0)">
               <text pointer-events="none" y="3" dy=".71em" transform="translate(9.178082191780824,115) rotate(29.999999999999996)" fill="rgb(0,0,0)" text-anchor="middle" style="font:9px sans-serif">mmd</text>
          </g>
          <g transform="translate(201.9178082191781,0)">
               <rect y="77.27581707936676" width="1.529680365296804" height="22.72418292063324" fill="rgb(31,119,180)"/>
               <rect x="1.529680365296804" y="54.55571770712521" width="1.529680365296804" height="45.44428229287479" fill="rgb(174,199,232)"/>
               <rect x="3.059360730593608" y="31.84180862228409" width="1.529680365296804" height="68.15819137771591" fill="rgb(255,127,14)"/>
               <rect x="4.589041095890412" y="9.133085753937237" width="1.529680365296804" height="90.86691424606276" fill="rgb(255,187,120)"/>
          </g>
          <g transform="translate(201.9178082191781,0)">
               <text pointer-events="none" y="3" dy=".71em" transform="translate(9.178082191780824,115) rotate(29.999999999999996)" fill="rgb(0,0,0)" text-anchor="middle" style="font:9px sans-serif">llp</text>
          </g>
          <g transform="translate(223.94520547945208,0)">
               <rect y="77.29975882988472" width="1.529680365296804" height="22.700241170115284" fill="rgb(31,119,180)"/>
               <rect x="1.529680365296804" y="54.657073106862725" width="1.529680365296804" height="45.34292689313727" fill="rgb(174,199,232)"/>
               <rect x="3.059360730593608" y="32.0189293551137" width="1.529680365296804" height="67.9810706448863" fill="rgb(255,127,14)"/>
               <rect x="4.589041095890412" y="9.623240315790795" width="1.529680365296804" height="90.3767596842092" fill="rgb(255,187,120)"/>
          </g>
          <g transform="translate(223.94520547945208,0)">
               <text pointer-events="none" y="3" dy=".71em" transform="translate(9.178082191780824,115) rotate(29.999999999999996)" fill="rgb(0,0,0)" text-anchor="middle" style="font:9px sans-serif">lld</text>
          </g>
          <g transform="translate(245.97260273972606,0)">
               <rect y="77.27730944885107" width="1.529680365296804" height="22.722690551148926" fill="rgb(31,119,180)"/>
               <rect x="1.529680365296804" y="54.54762468333463" width="1.529680365296804" height="45.45237531666537" fill="rgb(174,199,232)"/>
               <rect x="3.059360730593608" y="31.823672041428978" width="1.529680365296804" height="68.17632795857102" fill="rgb(255,127,14)"/>
               <rect x="4.589041095890412" y="9.099084809866838" width="1.529680365296804" height="90.90091519013316" fill="rgb(255,187,120)"/>
          </g>
          <g transform="translate(245.97260273972606,0)">
               <text pointer-events="none" y="3" dy=".71em" transform="translate(9.178082191780824,115) rotate(29.999999999999996)" fill="rgb(0,0,0)" text-anchor="middle" style="font:9px sans-serif">lli</text>
          </g>
     </g>
     <g transform="translate(50,10)">
          <text pointer-events="none" dy=".35em" transform="translate(-40,60.0) rotate(-90.0)" fill="rgb(0,0,0)" text-anchor="middle" style="font:9px sans-serif">Percent Overhead</text>
     </g>
     <g transform="translate(50,10)">
          <line shape-rendering="crispEdges" x1="0" y1="100.0" x2="288" y2="100.0" stroke="rgb(0,0,0)" stroke-width="1"/>
          <line shape-rendering="crispEdges" x1="0" y1="77.27558878231966" x2="288" y2="77.27558878231966" stroke="rgb(255,255,255)" stroke-opacity="0.3" stroke-width="1"/>
          <line shape-rendering="crispEdges" x1="0" y1="54.55117756463933" x2="288" y2="54.55117756463933" stroke="rgb(255,255,255)" stroke-opacity="0.3" stroke-width="1"/>
          <line shape-rendering="crispEdges" x1="0" y1="31.82676634695899" x2="288" y2="31.82676634695899" stroke="rgb(255,255,255)" stroke-opacity="0.3" stroke-width="1"/>
          <line shape-rendering="crispEdges" x1="0" y1="9.102355129278664" x2="288" y2="9.102355129278664" stroke="rgb(255,255,255)" stroke-opacity="0.3" stroke-width="1"/>
     </g>
     <g transform="translate(50,10)">
          <line shape-rendering="crispEdges" x1="0" y1="100.0" x2="10" y2="100.0" stroke="rgb(0,0,0)" stroke-width="1"/>
          <line shape-rendering="crispEdges" x1="0" y1="77.27558878231966" x2="10" y2="77.27558878231966" stroke="rgb(0,0,0)" stroke-width="1"/>
          <line shape-rendering="crispEdges" x1="0" y1="54.55117756463933" x2="10" y2="54.55117756463933" stroke="rgb(0,0,0)" stroke-width="1"/>
          <line shape-rendering="crispEdges" x1="0" y1="31.82676634695899" x2="10" y2="31.82676634695899" stroke="rgb(0,0,0)" stroke-width="1"/>
          <line shape-rendering="crispEdges" x1="0" y1="9.102355129278664" x2="10" y2="9.102355129278664" stroke="rgb(0,0,0)" stroke-width="1"/>
     </g>
     <g transform="translate(50,10)">
          <text pointer-events="none" x="-3" dy=".35em" transform="translate(0,100.0)" fill="rgb(0,0,0)" text-anchor="end">0</text>
          <text pointer-events="none" x="-3" dy=".35em" transform="translate(0,77.27558878231966)" fill="rgb(0,0,0)" text-anchor="end">2</text>
          <text pointer-events="none" x="-3" dy=".35em" transform="translate(0,54.55117756463933)" fill="rgb(0,0,0)" text-anchor="end">4</text>
          <text pointer-events="none" x="-3" dy=".35em" transform="translate(0,31.82676634695899)" fill="rgb(0,0,0)" text-anchor="end">6</text>
          <text pointer-events="none" x="-3" dy=".35em" transform="translate(0,9.102355129278664)" fill="rgb(0,0,0)" text-anchor="end">8</text>
     </g>
     <g transform="translate(50,10)">
          <circle fill="rgb(31,119,180)" stroke="rgb(31,119,180)" cx="270" cy="85" r="4.47213595499958"/>
          <circle fill="rgb(174,199,232)" stroke="rgb(31,119,180)" cx="270" cy="75" r="4.47213595499958"/>
          <circle fill="rgb(255,127,14)" stroke="rgb(31,119,180)" cx="270" cy="65" r="4.47213595499958"/>
          <circle fill="rgb(255,187,120)" stroke="rgb(31,119,180)" cx="270" cy="55" r="4.47213595499958"/>
     </g>
     <g transform="translate(50,10)">
          <text pointer-events="none" x="-3" dy=".35em" transform="translate(288,85)" fill="rgb(0,0,0)" text-anchor="end">2</text>
          <text pointer-events="none" x="-3" dy=".35em" transform="translate(288,75)" fill="rgb(0,0,0)" text-anchor="end">4</text>
          <text pointer-events="none" x="-3" dy=".35em" transform="translate(288,65)" fill="rgb(0,0,0)" text-anchor="end">6</text>
          <text pointer-events="none" x="-3" dy=".35em" transform="translate(288,55)" fill="rgb(0,0,0)" text-anchor="end">8</text>
     </g>
</svg>
