<svg xmlns="http://www.w3.org/2000/svg" xmlns:xlink="http://www.w3.org/1999/xlink" font-size="10px" font-family="sans-serif" fill="none" stroke="none" stroke-width="1.5" width="343" height="150">
     <g transform="translate(50,10)">
          <g transform="translate(3.6712328767123283,0)">
               <rect y="81.06867834810572" width="1.529680365296804" height="18.93132165189428" fill="rgb(31,119,180)"/>
               <rect x="1.529680365296804" y="62.13735669621144" width="1.529680365296804" height="37.86264330378856" fill="rgb(174,199,232)"/>
               <rect x="3.059360730593608" y="43.20603504431716" width="1.529680365296804" height="56.79396495568284" fill="rgb(255,127,14)"/>
               <rect x="4.589041095890412" y="24.274713392422882" width="1.529680365296804" height="75.72528660757712" fill="rgb(255,187,120)"/>
          </g>
          <g transform="translate(3.6712328767123283,0)">
               <text pointer-events="none" y="3" dy=".71em" transform="translate(9.178082191780824,115) rotate(29.999999999999996)" fill="rgb(0,0,0)" text-anchor="middle" style="font:9px sans-serif">hhd</text>
          </g>
          <g transform="translate(25.698630136986303,0)">
               <rect y="100.0" width="1.529680365296804" height="1.0e-10" fill="rgb(31,119,180)"/>
               <rect x="1.529680365296804" y="100.0" width="1.529680365296804" height="1.0e-10" fill="rgb(174,199,232)"/>
               <rect x="3.059360730593608" y="100.0" width="1.529680365296804" height="1.0e-10" fill="rgb(255,127,14)"/>
               <rect x="4.589041095890412" y="100.0" width="1.529680365296804" height="1.0e-10" fill="rgb(255,187,120)"/>
          </g>
          <g transform="translate(25.698630136986303,0)">
               <text pointer-events="none" y="3" dy=".71em" transform="translate(9.178082191780824,115) rotate(29.999999999999996)" fill="rgb(0,0,0)" text-anchor="middle" style="font:9px sans-serif">hhn</text>
          </g>
          <g transform="translate(47.72602739726028,0)">
               <rect y="79.23968515142901" width="1.529680365296804" height="20.76031484857098" fill="rgb(31,119,180)"/>
               <rect x="1.529680365296804" y="58.47937030285803" width="1.529680365296804" height="41.52062969714196" fill="rgb(174,199,232)"/>
               <rect x="3.059360730593608" y="37.71905545428705" width="1.529680365296804" height="62.28094454571295" fill="rgb(255,127,14)"/>
               <rect x="4.589041095890412" y="16.958740605716073" width="1.529680365296804" height="83.04125939428393" fill="rgb(255,187,120)"/>
          </g>
          <g transform="translate(47.72602739726028,0)">
               <text pointer-events="none" y="3" dy=".71em" transform="translate(9.178082191780824,115) rotate(29.999999999999996)" fill="rgb(0,0,0)" text-anchor="middle" style="font:9px sans-serif">hhi</text>
          </g>
          <g transform="translate(69.75342465753425,0)">
               <rect y="77.27272727272728" width="1.529680365296804" height="22.727272727272723" fill="rgb(31,119,180)"/>
               <rect x="1.529680365296804" y="54.54545454545456" width="1.529680365296804" height="45.454545454545446" fill="rgb(174,199,232)"/>
               <rect x="3.059360730593608" y="31.81818181818184" width="1.529680365296804" height="68.18181818181816" fill="rgb(255,127,14)"/>
               <rect x="4.589041095890412" y="9.090909090909108" width="1.529680365296804" height="90.90909090909089" fill="rgb(255,187,120)"/>
          </g>
          <g transform="translate(69.75342465753425,0)">
               <text pointer-events="none" y="3" dy=".71em" transform="translate(9.178082191780824,115) rotate(29.999999999999996)" fill="rgb(0,0,0)" text-anchor="middle" style="font:9px sans-serif">hli</text>
          </g>
          <g transform="translate(91.78082191780823,0)">
               <rect y="100.0" width="1.529680365296804" height="1.0e-10" fill="rgb(31,119,180)"/>
               <rect x="1.529680365296804" y="100.0" width="1.529680365296804" height="1.0e-10" fill="rgb(174,199,232)"/>
               <rect x="3.059360730593608" y="100.0" width="1.529680365296804" height="1.0e-10" fill="rgb(255,127,14)"/>
               <rect x="4.589041095890412" y="100.0" width="1.529680365296804" height="1.0e-10" fill="rgb(255,187,120)"/>
          </g>
          <g transform="translate(91.78082191780823,0)">
               <text pointer-events="none" y="3" dy=".71em" transform="translate(9.178082191780824,115) rotate(29.999999999999996)" fill="rgb(0,0,0)" text-anchor="middle" style="font:9px sans-serif">hld</text>
          </g>
          <g transform="translate(113.8082191780822,0)">
               <rect y="78.19753012522519" width="1.529680365296804" height="21.80246987477481" fill="rgb(31,119,180)"/>
               <rect x="1.529680365296804" y="56.39506025045037" width="1.529680365296804" height="43.60493974954962" fill="rgb(174,199,232)"/>
               <rect x="3.059360730593608" y="34.59259037567557" width="1.529680365296804" height="65.40740962432443" fill="rgb(255,127,14)"/>
               <rect x="4.589041095890412" y="12.790120500900755" width="1.529680365296804" height="87.20987949909924" fill="rgb(255,187,120)"/>
          </g>
          <g transform="translate(113.8082191780822,0)">
               <text pointer-events="none" y="3" dy=".71em" transform="translate(9.178082191780824,115) rotate(29.999999999999996)" fill="rgb(0,0,0)" text-anchor="middle" style="font:9px sans-serif">hmi</text>
          </g>
          <g transform="translate(135.8356164383562,0)">
               <rect y="83.22014311860275" width="1.529680365296804" height="16.779856881397258" fill="rgb(31,119,180)"/>
               <rect x="1.529680365296804" y="66.44028623720548" width="1.529680365296804" height="33.559713762794516" fill="rgb(174,199,232)"/>
               <rect x="3.059360730593608" y="49.66042935580823" width="1.529680365296804" height="50.33957064419177" fill="rgb(255,127,14)"/>
               <rect x="4.589041095890412" y="32.88057247441097" width="1.529680365296804" height="67.11942752558903" fill="rgb(255,187,120)"/>
          </g>
          <g transform="translate(135.8356164383562,0)">
               <text pointer-events="none" y="3" dy=".71em" transform="translate(9.178082191780824,115) rotate(29.999999999999996)" fill="rgb(0,0,0)" text-anchor="middle" style="font:9px sans-serif">hmd</text>
          </g>
          <g transform="translate(157.86301369863017,0)">
               <rect y="78.01382729414289" width="1.529680365296804" height="21.986172705857115" fill="rgb(31,119,180)"/>
               <rect x="1.529680365296804" y="56.02765458828577" width="1.529680365296804" height="43.97234541171423" fill="rgb(174,199,232)"/>
               <rect x="3.059360730593608" y="34.041481882428656" width="1.529680365296804" height="65.95851811757134" fill="rgb(255,127,14)"/>
               <rect x="4.589041095890412" y="12.05530917657154" width="1.529680365296804" height="87.94469082342846" fill="rgb(255,187,120)"/>
          </g>
          <g transform="translate(157.86301369863017,0)">
               <text pointer-events="none" y="3" dy=".71em" transform="translate(9.178082191780824,115) rotate(29.999999999999996)" fill="rgb(0,0,0)" text-anchor="middle" style="font:9px sans-serif">mmi</text>
          </g>
          <g transform="translate(179.89041095890414,0)">
               <rect y="78.64739597846813" width="1.529680365296804" height="21.352604021531878" fill="rgb(31,119,180)"/>
               <rect x="1.529680365296804" y="57.29479195693625" width="1.529680365296804" height="42.705208043063756" fill="rgb(174,199,232)"/>
               <rect x="3.059360730593608" y="35.94218793540436" width="1.529680365296804" height="64.05781206459564" fill="rgb(255,127,14)"/>
               <rect x="4.589041095890412" y="14.589583913872488" width="1.529680365296804" height="85.41041608612751" fill="rgb(255,187,120)"/>
          </g>
          <g transform="translate(179.89041095890414,0)">
               <text pointer-events="none" y="3" dy=".71em" transform="translate(9.178082191780824,115) rotate(29.999999999999996)" fill="rgb(0,0,0)" text-anchor="middle" style="font:9px sans-serif">mmd</text>
          </g>
          <g transform="translate(201.9178082191781,0)">
               <rect y="77.81777349834157" width="1.529680365296804" height="22.182226501658437" fill="rgb(31,119,180)"/>
               <rect x="1.529680365296804" y="55.63554699668313" width="1.529680365296804" height="44.364453003316875" fill="rgb(174,199,232)"/>
               <rect x="3.059360730593608" y="33.453320495024684" width="1.529680365296804" height="66.54667950497532" fill="rgb(255,127,14)"/>
               <rect x="4.589041095890412" y="11.27109399336625" width="1.529680365296804" height="88.72890600663375" fill="rgb(255,187,120)"/>
          </g>
          <g transform="translate(201.9178082191781,0)">
               <text pointer-events="none" y="3" dy=".71em" transform="translate(9.178082191780824,115) rotate(29.999999999999996)" fill="rgb(0,0,0)" text-anchor="middle" style="font:9px sans-serif">llp</text>
          </g>
          <g transform="translate(223.94520547945208,0)">
               <rect y="77.92581710797002" width="1.529680365296804" height="22.074182892029977" fill="rgb(31,119,180)"/>
               <rect x="1.529680365296804" y="55.85163421594004" width="1.529680365296804" height="44.148365784059955" fill="rgb(174,199,232)"/>
               <rect x="3.059360730593608" y="33.77745132391007" width="1.529680365296804" height="66.22254867608993" fill="rgb(255,127,14)"/>
               <rect x="4.589041095890412" y="11.70326843188009" width="1.529680365296804" height="88.29673156811991" fill="rgb(255,187,120)"/>
          </g>
          <g transform="translate(223.94520547945208,0)">
               <text pointer-events="none" y="3" dy=".71em" transform="translate(9.178082191780824,115) rotate(29.999999999999996)" fill="rgb(0,0,0)" text-anchor="middle" style="font:9px sans-serif">lld</text>
          </g>
          <g transform="translate(245.97260273972606,0)">
               <rect y="77.81806184693993" width="1.529680365296804" height="22.181938153060074" fill="rgb(31,119,180)"/>
               <rect x="1.529680365296804" y="55.63612369387985" width="1.529680365296804" height="44.36387630612015" fill="rgb(174,199,232)"/>
               <rect x="3.059360730593608" y="33.45418554081978" width="1.529680365296804" height="66.54581445918022" fill="rgb(255,127,14)"/>
               <rect x="4.589041095890412" y="11.272247387759705" width="1.529680365296804" height="88.7277526122403" fill="rgb(255,187,120)"/>
          </g>
          <g transform="translate(245.97260273972606,0)">
               <text pointer-events="none" y="3" dy=".71em" transform="translate(9.178082191780824,115) rotate(29.999999999999996)" fill="rgb(0,0,0)" text-anchor="middle" style="font:9px sans-serif">lli</text>
          </g>
     </g>
     <g transform="translate(50,10)">
          <text pointer-events="none" dy=".35em" transform="translate(-40,60.0) rotate(-90.0)" fill="rgb(0,0,0)" text-anchor="middle" style="font:9px sans-serif">Percent Overhead</text>
     </g>
     <g transform="translate(50,10)">
          <line shape-rendering="crispEdges" x1="0" y1="100.0" x2="288" y2="100.0" stroke="rgb(0,0,0)" stroke-width="1"/>
          <line shape-rendering="crispEdges" x1="0" y1="77.80075029419412" x2="288" y2="77.80075029419412" stroke="rgb(255,255,255)" stroke-opacity="0.3" stroke-width="1"/>
          <line shape-rendering="crispEdges" x1="0" y1="55.601500588388234" x2="288" y2="55.601500588388234" stroke="rgb(255,255,255)" stroke-opacity="0.3" stroke-width="1"/>
          <line shape-rendering="crispEdges" x1="0" y1="33.40225088258235" x2="288" y2="33.40225088258235" stroke="rgb(255,255,255)" stroke-opacity="0.3" stroke-width="1"/>
          <line shape-rendering="crispEdges" x1="0" y1="11.203001176776468" x2="288" y2="11.203001176776468" stroke="rgb(255,255,255)" stroke-opacity="0.3" stroke-width="1"/>
     </g>
     <g transform="translate(50,10)">
          <line shape-rendering="crispEdges" x1="0" y1="100.0" x2="10" y2="100.0" stroke="rgb(0,0,0)" stroke-width="1"/>
          <line shape-rendering="crispEdges" x1="0" y1="77.80075029419412" x2="10" y2="77.80075029419412" stroke="rgb(0,0,0)" stroke-width="1"/>
          <line shape-rendering="crispEdges" x1="0" y1="55.601500588388234" x2="10" y2="55.601500588388234" stroke="rgb(0,0,0)" stroke-width="1"/>
          <line shape-rendering="crispEdges" x1="0" y1="33.40225088258235" x2="10" y2="33.40225088258235" stroke="rgb(0,0,0)" stroke-width="1"/>
          <line shape-rendering="crispEdges" x1="0" y1="11.203001176776468" x2="10" y2="11.203001176776468" stroke="rgb(0,0,0)" stroke-width="1"/>
     </g>
     <g transform="translate(50,10)">
          <text pointer-events="none" x="-3" dy=".35em" transform="translate(0,100.0)" fill="rgb(0,0,0)" text-anchor="end">0</text>
          <text pointer-events="none" x="-3" dy=".35em" transform="translate(0,77.80075029419412)" fill="rgb(0,0,0)" text-anchor="end">2</text>
          <text pointer-events="none" x="-3" dy=".35em" transform="translate(0,55.601500588388234)" fill="rgb(0,0,0)" text-anchor="end">4</text>
          <text pointer-events="none" x="-3" dy=".35em" transform="translate(0,33.40225088258235)" fill="rgb(0,0,0)" text-anchor="end">6</text>
          <text pointer-events="none" x="-3" dy=".35em" transform="translate(0,11.203001176776468)" fill="rgb(0,0,0)" text-anchor="end">8</text>
     </g>
     <g transform="translate(50,10)">
          <circle fill="rgb(31,119,180)" stroke="rgb(31,119,180)" cx="270" cy="85" r="4.47213595499958"/>
          <circle fill="rgb(174,199,232)" stroke="rgb(31,119,180)" cx="270" cy="75" r="4.47213595499958"/>
          <circle fill="rgb(255,127,14)" stroke="rgb(31,119,180)" cx="270" cy="65" r="4.47213595499958"/>
          <circle fill="rgb(255,187,120)" stroke="rgb(31,119,180)" cx="270" cy="55" r="4.47213595499958"/>
     </g>
     <g transform="translate(50,10)">
          <text pointer-events="none" x="-3" dy=".35em" transform="translate(288,85)" fill="rgb(0,0,0)" text-anchor="end">2</text>
          <text pointer-events="none" x="-3" dy=".35em" transform="translate(288,75)" fill="rgb(0,0,0)" text-anchor="end">4</text>
          <text pointer-events="none" x="-3" dy=".35em" transform="translate(288,65)" fill="rgb(0,0,0)" text-anchor="end">6</text>
          <text pointer-events="none" x="-3" dy=".35em" transform="translate(288,55)" fill="rgb(0,0,0)" text-anchor="end">8</text>
     </g>
</svg>
