<svg xmlns="http://www.w3.org/2000/svg" xmlns:xlink="http://www.w3.org/1999/xlink" font-size="10px" font-family="sans-serif" fill="none" stroke="none" stroke-width="1.5" width="343" height="150">
     <g transform="translate(50,10)">
          <g transform="translate(3.397260273972602,0)">
               <rect y="100.0" width="1.4155251141552512" height="1.0e-10" fill="rgb(31,119,180)"/>
               <rect x="1.4155251141552512" y="100.0" width="1.4155251141552512" height="1.0e-10" fill="rgb(174,199,232)"/>
               <rect x="2.8310502283105023" y="100.0" width="1.4155251141552512" height="1.0e-10" fill="rgb(255,127,14)"/>
          </g>
          <g transform="translate(3.397260273972602,0)">
               <text pointer-events="none" y="3" dy=".71em" transform="translate(8.493150684931507,115) rotate(29.999999999999996)" fill="rgb(0,0,0)" text-anchor="middle" style="font:9px sans-serif">hhd</text>
          </g>
          <g transform="translate(23.78082191780822,0)">
               <rect y="100.0" width="1.4155251141552512" height="1.0e-10" fill="rgb(31,119,180)"/>
               <rect x="1.4155251141552512" y="100.0" width="1.4155251141552512" height="1.0e-10" fill="rgb(174,199,232)"/>
               <rect x="2.8310502283105023" y="100.0" width="1.4155251141552512" height="1.0e-10" fill="rgb(255,127,14)"/>
          </g>
          <g transform="translate(23.78082191780822,0)">
               <text pointer-events="none" y="3" dy=".71em" transform="translate(8.493150684931507,115) rotate(29.999999999999996)" fill="rgb(0,0,0)" text-anchor="middle" style="font:9px sans-serif">hhn</text>
          </g>
          <g transform="translate(44.16438356164383,0)">
               <rect y="9.090909090909108" width="1.4155251141552512" height="90.90909090909089" fill="rgb(31,119,180)"/>
               <rect x="1.4155251141552512" y="100.0" width="1.4155251141552512" height="1.0e-10" fill="rgb(174,199,232)"/>
               <rect x="2.8310502283105023" y="100.0" width="1.4155251141552512" height="1.0e-10" fill="rgb(255,127,14)"/>
          </g>
          <g transform="translate(44.16438356164383,0)">
               <text pointer-events="none" y="3" dy=".71em" transform="translate(8.493150684931507,115) rotate(29.999999999999996)" fill="rgb(0,0,0)" text-anchor="middle" style="font:9px sans-serif">hhi</text>
          </g>
          <g transform="translate(64.54794520547945,0)">
               <rect y="100.0" width="1.4155251141552512" height="1.0e-10" fill="rgb(31,119,180)"/>
               <rect x="1.4155251141552512" y="100.0" width="1.4155251141552512" height="1.0e-10" fill="rgb(174,199,232)"/>
               <rect x="2.8310502283105023" y="100.0" width="1.4155251141552512" height="1.0e-10" fill="rgb(255,127,14)"/>
          </g>
          <g transform="translate(64.54794520547945,0)">
               <text pointer-events="none" y="3" dy=".71em" transform="translate(8.493150684931507,115) rotate(29.999999999999996)" fill="rgb(0,0,0)" text-anchor="middle" style="font:9px sans-serif">hli</text>
          </g>
          <g transform="translate(84.93150684931507,0)">
               <rect y="100.0" width="1.4155251141552512" height="1.0e-10" fill="rgb(31,119,180)"/>
               <rect x="1.4155251141552512" y="100.0" width="1.4155251141552512" height="1.0e-10" fill="rgb(174,199,232)"/>
               <rect x="2.8310502283105023" y="100.0" width="1.4155251141552512" height="1.0e-10" fill="rgb(255,127,14)"/>
          </g>
          <g transform="translate(84.93150684931507,0)">
               <text pointer-events="none" y="3" dy=".71em" transform="translate(8.493150684931507,115) rotate(29.999999999999996)" fill="rgb(0,0,0)" text-anchor="middle" style="font:9px sans-serif">hld</text>
          </g>
          <g transform="translate(105.31506849315069,0)">
               <rect y="100.0" width="1.4155251141552512" height="1.0e-10" fill="rgb(31,119,180)"/>
               <rect x="1.4155251141552512" y="100.0" width="1.4155251141552512" height="1.0e-10" fill="rgb(174,199,232)"/>
               <rect x="2.8310502283105023" y="100.0" width="1.4155251141552512" height="1.0e-10" fill="rgb(255,127,14)"/>
          </g>
          <g transform="translate(105.31506849315069,0)">
               <text pointer-events="none" y="3" dy=".71em" transform="translate(8.493150684931507,115) rotate(29.999999999999996)" fill="rgb(0,0,0)" text-anchor="middle" style="font:9px sans-serif">hmi</text>
          </g>
          <g transform="translate(125.6986301369863,0)">
               <rect y="100.0" width="1.4155251141552512" height="1.0e-10" fill="rgb(31,119,180)"/>
               <rect x="1.4155251141552512" y="100.0" width="1.4155251141552512" height="1.0e-10" fill="rgb(174,199,232)"/>
               <rect x="2.8310502283105023" y="100.0" width="1.4155251141552512" height="1.0e-10" fill="rgb(255,127,14)"/>
          </g>
          <g transform="translate(125.6986301369863,0)">
               <text pointer-events="none" y="3" dy=".71em" transform="translate(8.493150684931507,115) rotate(29.999999999999996)" fill="rgb(0,0,0)" text-anchor="middle" style="font:9px sans-serif">hmd</text>
          </g>
          <g transform="translate(146.08219178082192,0)">
               <rect y="100.0" width="1.4155251141552512" height="1.0e-10" fill="rgb(31,119,180)"/>
               <rect x="1.4155251141552512" y="100.0" width="1.4155251141552512" height="1.0e-10" fill="rgb(174,199,232)"/>
               <rect x="2.8310502283105023" y="100.0" width="1.4155251141552512" height="1.0e-10" fill="rgb(255,127,14)"/>
          </g>
          <g transform="translate(146.08219178082192,0)">
               <text pointer-events="none" y="3" dy=".71em" transform="translate(8.493150684931507,115) rotate(29.999999999999996)" fill="rgb(0,0,0)" text-anchor="middle" style="font:9px sans-serif">mmi</text>
          </g>
          <g transform="translate(166.46575342465752,0)">
               <rect y="85.23524225997292" width="1.4155251141552512" height="14.764757740027074" fill="rgb(31,119,180)"/>
               <rect x="1.4155251141552512" y="100.0" width="1.4155251141552512" height="1.0e-10" fill="rgb(174,199,232)"/>
               <rect x="2.8310502283105023" y="100.0" width="1.4155251141552512" height="1.0e-10" fill="rgb(255,127,14)"/>
          </g>
          <g transform="translate(166.46575342465752,0)">
               <text pointer-events="none" y="3" dy=".71em" transform="translate(8.493150684931507,115) rotate(29.999999999999996)" fill="rgb(0,0,0)" text-anchor="middle" style="font:9px sans-serif">mmd</text>
          </g>
          <g transform="translate(186.84931506849313,0)">
               <rect y="89.36481801191387" width="1.4155251141552512" height="10.635181988086126" fill="rgb(31,119,180)"/>
               <rect x="1.4155251141552512" y="100.0" width="1.4155251141552512" height="1.0e-10" fill="rgb(174,199,232)"/>
               <rect x="2.8310502283105023" y="100.0" width="1.4155251141552512" height="1.0e-10" fill="rgb(255,127,14)"/>
          </g>
          <g transform="translate(186.84931506849313,0)">
               <text pointer-events="none" y="3" dy=".71em" transform="translate(8.493150684931507,115) rotate(29.999999999999996)" fill="rgb(0,0,0)" text-anchor="middle" style="font:9px sans-serif">llp</text>
          </g>
          <g transform="translate(207.23287671232876,0)">
               <rect y="83.38237491120604" width="1.4155251141552512" height="16.617625088793957" fill="rgb(31,119,180)"/>
               <rect x="1.4155251141552512" y="100.0" width="1.4155251141552512" height="1.0e-10" fill="rgb(174,199,232)"/>
               <rect x="2.8310502283105023" y="100.0" width="1.4155251141552512" height="1.0e-10" fill="rgb(255,127,14)"/>
          </g>
          <g transform="translate(207.23287671232876,0)">
               <text pointer-events="none" y="3" dy=".71em" transform="translate(8.493150684931507,115) rotate(29.999999999999996)" fill="rgb(0,0,0)" text-anchor="middle" style="font:9px sans-serif">lld</text>
          </g>
          <g transform="translate(227.61643835616437,0)">
               <rect y="89.37687256131522" width="1.4155251141552512" height="10.623127438684772" fill="rgb(31,119,180)"/>
               <rect x="1.4155251141552512" y="100.0" width="1.4155251141552512" height="1.0e-10" fill="rgb(174,199,232)"/>
               <rect x="2.8310502283105023" y="100.0" width="1.4155251141552512" height="1.0e-10" fill="rgb(255,127,14)"/>
          </g>
          <g transform="translate(227.61643835616437,0)">
               <text pointer-events="none" y="3" dy=".71em" transform="translate(8.493150684931507,115) rotate(29.999999999999996)" fill="rgb(0,0,0)" text-anchor="middle" style="font:9px sans-serif">lli</text>
          </g>
     </g>
     <g transform="translate(50,10)">
          <text pointer-events="none" dy=".35em" transform="translate(-40,60.0) rotate(-90.0)" fill="rgb(0,0,0)" text-anchor="middle" style="font:9px sans-serif">Percent Overhead</text>
     </g>
     <g transform="translate(50,10)">
          <line shape-rendering="crispEdges" x1="0" y1="100.0" x2="288" y2="100.0" stroke="rgb(0,0,0)" stroke-width="1"/>
          <line shape-rendering="crispEdges" x1="0" y1="73.4534254940604" x2="288" y2="73.4534254940604" stroke="rgb(255,255,255)" stroke-opacity="0.3" stroke-width="1"/>
          <line shape-rendering="crispEdges" x1="0" y1="46.906850988120794" x2="288" y2="46.906850988120794" stroke="rgb(255,255,255)" stroke-opacity="0.3" stroke-width="1"/>
          <line shape-rendering="crispEdges" x1="0" y1="20.360276482181177" x2="288" y2="20.360276482181177" stroke="rgb(255,255,255)" stroke-opacity="0.3" stroke-width="1"/>
     </g>
     <g transform="translate(50,10)">
          <line shape-rendering="crispEdges" x1="0" y1="100.0" x2="10" y2="100.0" stroke="rgb(0,0,0)" stroke-width="1"/>
          <line shape-rendering="crispEdges" x1="0" y1="73.4534254940604" x2="10" y2="73.4534254940604" stroke="rgb(0,0,0)" stroke-width="1"/>
          <line shape-rendering="crispEdges" x1="0" y1="46.906850988120794" x2="10" y2="46.906850988120794" stroke="rgb(0,0,0)" stroke-width="1"/>
          <line shape-rendering="crispEdges" x1="0" y1="20.360276482181177" x2="10" y2="20.360276482181177" stroke="rgb(0,0,0)" stroke-width="1"/>
     </g>
     <g transform="translate(50,10)">
          <text pointer-events="none" x="-3" dy=".35em" transform="translate(0,100.0)" fill="rgb(0,0,0)" text-anchor="end">0</text>
          <text pointer-events="none" x="-3" dy=".35em" transform="translate(0,73.4534254940604)" fill="rgb(0,0,0)" text-anchor="end">10</text>
          <text pointer-events="none" x="-3" dy=".35em" transform="translate(0,46.906850988120794)" fill="rgb(0,0,0)" text-anchor="end">20</text>
          <text pointer-events="none" x="-3" dy=".35em" transform="translate(0,20.360276482181177)" fill="rgb(0,0,0)" text-anchor="end">30</text>
     </g>
     <g transform="translate(50,10)">
          <circle fill="rgb(31,119,180)" stroke="rgb(31,119,180)" cx="250" cy="85" r="4.47213595499958"/>
          <circle fill="rgb(174,199,232)" stroke="rgb(31,119,180)" cx="250" cy="75" r="4.47213595499958"/>
          <circle fill="rgb(255,127,14)" stroke="rgb(31,119,180)" cx="250" cy="65" r="4.47213595499958"/>
     </g>
     <g transform="translate(50,10)">
          <text pointer-events="none" x="-3" dy=".35em" transform="translate(288,85)" fill="rgb(0,0,0)" text-anchor="end">cache</text>
          <text pointer-events="none" x="-3" dy=".35em" transform="translate(288,75)" fill="rgb(0,0,0)" text-anchor="end">bus</text>
          <text pointer-events="none" x="-3" dy=".35em" transform="translate(288,65)" fill="rgb(0,0,0)" text-anchor="end">mem</text>
     </g>
</svg>
