<?xml version="1.0" encoding="UTF-8" standalone="no"?>
<!-- Created with Inkscape (http://www.inkscape.org/) -->

<svg
   xmlns:dc="http://purl.org/dc/elements/1.1/"
   xmlns:cc="http://creativecommons.org/ns#"
   xmlns:rdf="http://www.w3.org/1999/02/22-rdf-syntax-ns#"
   xmlns:svg="http://www.w3.org/2000/svg"
   xmlns="http://www.w3.org/2000/svg"
   version="1.1"
   width="488.75"
   height="145"
   id="svg6739"
   xml:space="preserve"><metadata
     id="metadata6745"><rdf:RDF><cc:Work
         rdf:about=""><dc:format>image/svg+xml</dc:format><dc:type
           rdf:resource="http://purl.org/dc/dcmitype/StillImage" /><dc:title></dc:title></cc:Work></rdf:RDF></metadata><defs
     id="defs6743" /><g
     transform="matrix(1.25,0,0,-1.25,0,145)"
     id="g6747"><g
       id="g6749"><text
         transform="matrix(1,0,0,-1,-0.878906,59.800781)"
         id="text6751"><tspan
           x="0 6.6719999 13.344 17.34 24.011999 30.684 34.007999 40.68 47.352001"
           y="0"
           id="tspan6753"
           style="font-size:12px;font-variant:normal;font-weight:normal;writing-mode:lr-tb;fill:#000000;fill-opacity:1;fill-rule:nonzero;stroke:none;font-family:Arial;-inkscape-font-specification:ArialMT">L2-L3 bus</tspan><tspan
           x="72.226562 76.222557 82.894562 89.566559 96.238564 102.91056 108.91056 115.58256"
           y="-28.792969"
           id="tspan6755"
           style="font-size:12px;font-variant:normal;font-weight:normal;writing-mode:lr-tb;fill:#000000;fill-opacity:1;fill-rule:nonzero;stroke:none;font-family:Arial;-inkscape-font-specification:ArialMT">reqLayer</tspan><tspan
           x="71.722656 75.718651 82.390656 88.390656 95.062653 101.73466 108.40665 114.40665 121.07865"
           y="22.222656"
           id="tspan6757"
           style="font-size:12px;font-variant:normal;font-weight:normal;writing-mode:lr-tb;fill:#000000;fill-opacity:1;fill-rule:nonzero;stroke:none;font-family:Arial;-inkscape-font-specification:ArialMT">respLayer</tspan></text>
<path
         d="m 68.336,92.508 c 0,0 0,0 -7.574,0 0,-51.016 0,-51.016 0,-51.016 8.082,0 8.082,0 8.082,0"
         id="path6759"
         style="fill:none;stroke:#000000;stroke-width:1;stroke-linecap:butt;stroke-linejoin:miter;stroke-miterlimit:4;stroke-opacity:1;stroke-dasharray:none" /><path
         d="m 60.254,64.727 c -6.059,0 -6.059,0 -6.059,0"
         id="path6761"
         style="fill:none;stroke:#000000;stroke-width:1;stroke-linecap:butt;stroke-linejoin:miter;stroke-miterlimit:4;stroke-opacity:1;stroke-dasharray:none" /><path
         d="m 202.227,53.84 92.43,0 0,-16.164 -92.43,0 0,16.164 z"
         id="path6763"
         style="fill:#ff0000;fill-opacity:0.50196096;fill-rule:nonzero;stroke:none" /><path
         d="m 59.289,16.219 c 330.359,0 330.359,0 330.359,0"
         id="path6765"
         style="fill:none;stroke:#000000;stroke-width:1;stroke-linecap:butt;stroke-linejoin:miter;stroke-miterlimit:4;stroke-opacity:1;stroke-dasharray:none" /><g
         transform="matrix(-1,0,0,1,0,116)"
         id="g6767"><path
           d="m -385.648,-99.781 2,-2 -7,2 7,2 -2,-2 z"
           id="path6769"
           style="fill:#000000;fill-opacity:1;fill-rule:evenodd;stroke:#000000;stroke-width:0.40000001;stroke-linecap:butt;stroke-linejoin:miter;stroke-miterlimit:4;stroke-opacity:1;stroke-dasharray:none" /></g><text
         transform="matrix(1,0,0,-1,167.81641,-0.300781)"
         id="text6771"><tspan
           x="0"
           y="0"
           id="tspan6775"
           style="font-size:12px;font-variant:normal;font-weight:normal;writing-mode:lr-tb;fill:#000000;fill-opacity:1;fill-rule:nonzero;stroke:none;font-family:Arial;-inkscape-font-specification:ArialMT">Timeline</tspan></text>
<path
         d="m 129.301,85.91 c 0,-13.637 0,-13.637 0,-13.637"
         id="path6781"
         style="fill:none;stroke:#000000;stroke-width:1;stroke-linecap:butt;stroke-linejoin:miter;stroke-miterlimit:4;stroke-opacity:1;stroke-dasharray:none" /><path
         d="m 129.551,71.68 c 0,-51.715 0,-51.715 0,-51.715"
         id="path6783"
         style="fill:none;stroke:#000000;stroke-width:1;stroke-linecap:butt;stroke-linejoin:miter;stroke-miterlimit:4;stroke-opacity:1;stroke-dasharray:2, 1;stroke-dashoffset:0" /><path
         d="m 3.699,50.777 19.422,0 0,-16.16 -19.422,0 0,16.16 z"
         id="path6785"
         style="fill:#ff0000;fill-opacity:0.50196096;fill-rule:nonzero;stroke:none" /><text
         transform="matrix(1,0,0,-1,24.417969,36.820312)"
         id="text6787"><tspan
           x="0 7.3200002 15.984"
           y="0"
           id="tspan6789"
           style="font-size:12px;font-variant:normal;font-weight:normal;writing-mode:lr-tb;fill:#000000;fill-opacity:1;fill-rule:nonzero;stroke:none;font-family:Arial;-inkscape-font-specification:ArialMT">TC0</tspan></text>
<path
         d="m 3.676,33.047 19.422,0 0,-16.16 -19.422,0 0,16.16 z"
         id="path6791"
         style="fill:#0000ff;fill-opacity:0.50196096;fill-rule:nonzero;stroke:none" /><text
         transform="matrix(1,0,0,-1,24.773438,18.964844)"
         id="text6793"><tspan
           x="0 7.3200002 15.984"
           y="0"
           id="tspan6795"
           style="font-size:12px;font-variant:normal;font-weight:normal;writing-mode:lr-tb;fill:#000000;fill-opacity:1;fill-rule:nonzero;stroke:none;font-family:Arial;-inkscape-font-specification:ArialMT">TC1</tspan></text>
<path
         d="m 129.34,115.145 c 0,-13.641 0,-13.641 0,-13.641"
         id="path6797"
         style="fill:none;stroke:#000000;stroke-width:1;stroke-linecap:butt;stroke-linejoin:miter;stroke-miterlimit:4;stroke-opacity:1;stroke-dasharray:none" /><path
         d="m 128.656,102.055 92.43,0 0,-16.164 -92.43,0 0,16.164 z"
         id="path6811"
         style="fill:#ff0000;fill-opacity:0.50196096;fill-rule:nonzero;stroke:none" /><path
         d="m 294.707,53.715 92.426,0 0,-16.164 -92.426,0 0,16.164 z"
         id="path6813"
         style="fill:#0000ff;fill-opacity:0.50196096;fill-rule:nonzero;stroke:none" /><path
         d="m 221.801,86.266 c 0,-13.637 0,-13.637 0,-13.637"
         id="path6815"
         style="fill:none;stroke:#000000;stroke-width:1;stroke-linecap:butt;stroke-linejoin:miter;stroke-miterlimit:4;stroke-opacity:1;stroke-dasharray:none" /><path
         d="m 386.664,38.184 c 0,-13.637 0,-13.637 0,-13.637"
         id="path6817"
         style="fill:none;stroke:#000000;stroke-width:1;stroke-linecap:butt;stroke-linejoin:miter;stroke-miterlimit:4;stroke-opacity:1;stroke-dasharray:none" /><path
         d="m 386.699,67.047 c 0,-13.637 0,-13.637 0,-13.637"
         id="path6819"
         style="fill:none;stroke:#000000;stroke-width:1;stroke-linecap:butt;stroke-linejoin:miter;stroke-miterlimit:4;stroke-opacity:1;stroke-dasharray:none" /><path
         d="m 221.84,115.5 c 0,-13.637 0,-13.637 0,-13.637"
         id="path6821"
         style="fill:none;stroke:#000000;stroke-width:1;stroke-linecap:butt;stroke-linejoin:miter;stroke-miterlimit:4;stroke-opacity:1;stroke-dasharray:none" /><path
         d="m 221.156,102.41 92.43,0 0,-16.16 -92.43,0 0,16.16 z"
         id="path6823"
         style="fill:#0000ff;fill-opacity:0.50196096;fill-rule:nonzero;stroke:none" /><text
         x="165.97159"
         y="-105.41335"
         transform="scale(1,-1)"
         id="text6825"><tspan
           x="165.97159"
           y="-105.41335"
           id="tspan6827"
           style="font-size:12px;font-variant:normal;font-weight:normal;writing-mode:lr-tb;fill:#000000;fill-opacity:1;fill-rule:nonzero;stroke:none;font-family:Arial;-inkscape-font-specification:ArialMT">t<tspan
   id="tspan6855"
   style="font-size:52.00042725%;baseline-shift:sub">resp</tspan></tspan></text>
<path
         d="m 131.465,45.121 c 69.238,0 69.238,0 69.238,0"
         id="path6833"
         style="fill:none;stroke:#000000;stroke-width:1.085127;stroke-linecap:butt;stroke-linejoin:miter;stroke-miterlimit:4;stroke-opacity:1;stroke-dasharray:none" /><g
         transform="matrix(1,0,0,-1,0,116)"
         id="g6835"><path
           d="m 135.809,70.879 2.168,-2.168 -7.594,2.168 7.594,2.172 -2.168,-2.172 z"
           id="path6837"
           style="fill:#000000;fill-opacity:1;fill-rule:evenodd;stroke:#000000;stroke-width:0.43405101;stroke-linecap:butt;stroke-linejoin:miter;stroke-miterlimit:4;stroke-opacity:1;stroke-dasharray:none" /></g><g
         transform="matrix(-1,0,0,1,0,116)"
         id="g6839"><path
           d="m -196.363,-70.879 2.172,-2.172 -7.598,2.172 7.598,2.168 -2.172,-2.168 z"
           id="path6841"
           style="fill:#000000;fill-opacity:1;fill-rule:evenodd;stroke:#000000;stroke-width:0.43405101;stroke-linecap:butt;stroke-linejoin:miter;stroke-miterlimit:4;stroke-opacity:1;stroke-dasharray:none" /></g><path
         d="m 295.246,37.68 c 0,-13.637 0,-13.637 0,-13.637"
         id="path6843"
         style="fill:none;stroke:#000000;stroke-width:1;stroke-linecap:butt;stroke-linejoin:miter;stroke-miterlimit:4;stroke-opacity:1;stroke-dasharray:none" /><path
         d="m 203.609,67.047 c 0,-13.637 0,-13.637 0,-13.637"
         id="path6845"
         style="fill:none;stroke:#000000;stroke-width:1;stroke-linecap:butt;stroke-linejoin:miter;stroke-miterlimit:4;stroke-opacity:1;stroke-dasharray:none" /><path
         d="m 202.816,37.934 c 0,-13.637 0,-13.637 0,-13.637"
         id="path6847"
         style="fill:none;stroke:#000000;stroke-width:1;stroke-linecap:butt;stroke-linejoin:miter;stroke-miterlimit:4;stroke-opacity:1;stroke-dasharray:none" /><path
         d="m 295.027,67.176 c 0,-13.637 0,-13.637 0,-13.637"
         id="path6849"
         style="fill:none;stroke:#000000;stroke-width:1;stroke-linecap:butt;stroke-linejoin:miter;stroke-miterlimit:4;stroke-opacity:1;stroke-dasharray:none" /><text
         x="240.67258"
         y="-58.204548"
         transform="scale(1,-1)"
         id="text6857"><tspan
           x="240.67258"
           y="-58.204548"
           id="tspan6859"
           style="font-size:12px;font-variant:normal;font-weight:normal;writing-mode:lr-tb;fill:#000000;fill-opacity:1;fill-rule:nonzero;stroke:none;font-family:Arial;-inkscape-font-specification:ArialMT">t<tspan
   id="tspan6861"
   style="font-size:52.00042725%;baseline-shift:sub">resp</tspan></tspan></text>
<text
         x="149.30966"
         y="-52.372871"
         transform="scale(1,-1)"
         id="text6865"><tspan
           x="149.30966"
           y="-52.372871"
           id="tspan6867"
           style="font-size:12px;font-variant:normal;font-weight:normal;writing-mode:lr-tb;fill:#000000;fill-opacity:1;fill-rule:nonzero;stroke:none;font-family:Arial;-inkscape-font-specification:ArialMT">t<tspan
   id="tspan6873"
   style="font-size:52.00042725%;baseline-shift:sub">req</tspan>+t<tspan
   id="tspan6871"
   style="font-size:52.00042725%;baseline-shift:sub">L3</tspan></tspan></text>
</g></g></svg>