<svg xmlns="http://www.w3.org/2000/svg" xmlns:xlink="http://www.w3.org/1999/xlink" font-size="10px" font-family="sans-serif" fill="none" stroke="none" stroke-width="1.5" width="343" height="150">
     <g transform="translate(50,10)">
          <g transform="translate(3.6712328767123283,0)">
               <rect y="100.0" width="1.529680365296804" height="1.0e-10" fill="rgb(31,119,180)"/>
               <rect x="1.529680365296804" y="100.0" width="1.529680365296804" height="1.0e-10" fill="rgb(174,199,232)"/>
               <rect x="3.059360730593608" y="100.0" width="1.529680365296804" height="1.0e-10" fill="rgb(255,127,14)"/>
          </g>
          <g transform="translate(3.6712328767123283,0)">
               <text pointer-events="none" y="3" dy=".71em" transform="translate(9.178082191780824,115) rotate(29.999999999999996)" fill="rgb(0,0,0)" text-anchor="middle" style="font:9px sans-serif">hhd</text>
          </g>
          <g transform="translate(25.698630136986303,0)">
               <rect y="100.0" width="1.529680365296804" height="1.0e-10" fill="rgb(31,119,180)"/>
               <rect x="1.529680365296804" y="100.0" width="1.529680365296804" height="1.0e-10" fill="rgb(174,199,232)"/>
               <rect x="3.059360730593608" y="100.0" width="1.529680365296804" height="1.0e-10" fill="rgb(255,127,14)"/>
          </g>
          <g transform="translate(25.698630136986303,0)">
               <text pointer-events="none" y="3" dy=".71em" transform="translate(9.178082191780824,115) rotate(29.999999999999996)" fill="rgb(0,0,0)" text-anchor="middle" style="font:9px sans-serif">hhn</text>
          </g>
          <g transform="translate(47.72602739726028,0)">
               <rect y="100.0" width="1.529680365296804" height="1.0e-10" fill="rgb(31,119,180)"/>
               <rect x="1.529680365296804" y="100.0" width="1.529680365296804" height="1.0e-10" fill="rgb(174,199,232)"/>
               <rect x="3.059360730593608" y="100.0" width="1.529680365296804" height="1.0e-10" fill="rgb(255,127,14)"/>
          </g>
          <g transform="translate(47.72602739726028,0)">
               <text pointer-events="none" y="3" dy=".71em" transform="translate(9.178082191780824,115) rotate(29.999999999999996)" fill="rgb(0,0,0)" text-anchor="middle" style="font:9px sans-serif">hhi</text>
          </g>
          <g transform="translate(69.75342465753425,0)">
               <rect y="100.0" width="1.529680365296804" height="1.0e-10" fill="rgb(31,119,180)"/>
               <rect x="1.529680365296804" y="100.0" width="1.529680365296804" height="1.0e-10" fill="rgb(174,199,232)"/>
               <rect x="3.059360730593608" y="100.0" width="1.529680365296804" height="1.0e-10" fill="rgb(255,127,14)"/>
          </g>
          <g transform="translate(69.75342465753425,0)">
               <text pointer-events="none" y="3" dy=".71em" transform="translate(9.178082191780824,115) rotate(29.999999999999996)" fill="rgb(0,0,0)" text-anchor="middle" style="font:9px sans-serif">hli</text>
          </g>
          <g transform="translate(91.78082191780823,0)">
               <rect y="100.0" width="1.529680365296804" height="1.0e-10" fill="rgb(31,119,180)"/>
               <rect x="1.529680365296804" y="100.0" width="1.529680365296804" height="1.0e-10" fill="rgb(174,199,232)"/>
               <rect x="3.059360730593608" y="100.0" width="1.529680365296804" height="1.0e-10" fill="rgb(255,127,14)"/>
          </g>
          <g transform="translate(91.78082191780823,0)">
               <text pointer-events="none" y="3" dy=".71em" transform="translate(9.178082191780824,115) rotate(29.999999999999996)" fill="rgb(0,0,0)" text-anchor="middle" style="font:9px sans-serif">hld</text>
          </g>
          <g transform="translate(113.8082191780822,0)">
               <rect y="100.0" width="1.529680365296804" height="1.0e-10" fill="rgb(31,119,180)"/>
               <rect x="1.529680365296804" y="100.0" width="1.529680365296804" height="1.0e-10" fill="rgb(174,199,232)"/>
               <rect x="3.059360730593608" y="100.0" width="1.529680365296804" height="1.0e-10" fill="rgb(255,127,14)"/>
          </g>
          <g transform="translate(113.8082191780822,0)">
               <text pointer-events="none" y="3" dy=".71em" transform="translate(9.178082191780824,115) rotate(29.999999999999996)" fill="rgb(0,0,0)" text-anchor="middle" style="font:9px sans-serif">hmi</text>
          </g>
          <g transform="translate(135.8356164383562,0)">
               <rect y="100.0" width="1.529680365296804" height="1.0e-10" fill="rgb(31,119,180)"/>
               <rect x="1.529680365296804" y="100.0" width="1.529680365296804" height="1.0e-10" fill="rgb(174,199,232)"/>
               <rect x="3.059360730593608" y="100.0" width="1.529680365296804" height="1.0e-10" fill="rgb(255,127,14)"/>
          </g>
          <g transform="translate(135.8356164383562,0)">
               <text pointer-events="none" y="3" dy=".71em" transform="translate(9.178082191780824,115) rotate(29.999999999999996)" fill="rgb(0,0,0)" text-anchor="middle" style="font:9px sans-serif">hmd</text>
          </g>
          <g transform="translate(157.86301369863017,0)">
               <rect y="100.0" width="1.529680365296804" height="1.0e-10" fill="rgb(31,119,180)"/>
               <rect x="1.529680365296804" y="100.0" width="1.529680365296804" height="1.0e-10" fill="rgb(174,199,232)"/>
               <rect x="3.059360730593608" y="100.0" width="1.529680365296804" height="1.0e-10" fill="rgb(255,127,14)"/>
          </g>
          <g transform="translate(157.86301369863017,0)">
               <text pointer-events="none" y="3" dy=".71em" transform="translate(9.178082191780824,115) rotate(29.999999999999996)" fill="rgb(0,0,0)" text-anchor="middle" style="font:9px sans-serif">mmi</text>
          </g>
          <g transform="translate(179.89041095890414,0)">
               <rect y="100.0" width="1.529680365296804" height="1.0e-10" fill="rgb(31,119,180)"/>
               <rect x="1.529680365296804" y="100.0" width="1.529680365296804" height="1.0e-10" fill="rgb(174,199,232)"/>
               <rect x="3.059360730593608" y="100.0" width="1.529680365296804" height="1.0e-10" fill="rgb(255,127,14)"/>
          </g>
          <g transform="translate(179.89041095890414,0)">
               <text pointer-events="none" y="3" dy=".71em" transform="translate(9.178082191780824,115) rotate(29.999999999999996)" fill="rgb(0,0,0)" text-anchor="middle" style="font:9px sans-serif">mmd</text>
          </g>
          <g transform="translate(201.9178082191781,0)">
               <rect y="21.459385336650925" width="1.529680365296804" height="78.54061466334907" fill="rgb(31,119,180)"/>
               <rect x="1.529680365296804" y="100.0" width="1.529680365296804" height="1.0e-10" fill="rgb(174,199,232)"/>
               <rect x="3.059360730593608" y="100.0" width="1.529680365296804" height="1.0e-10" fill="rgb(255,127,14)"/>
          </g>
          <g transform="translate(201.9178082191781,0)">
               <text pointer-events="none" y="3" dy=".71em" transform="translate(9.178082191780824,115) rotate(29.999999999999996)" fill="rgb(0,0,0)" text-anchor="middle" style="font:9px sans-serif">llp</text>
          </g>
          <g transform="translate(223.94520547945208,0)">
               <rect y="100.0" width="1.529680365296804" height="1.0e-10" fill="rgb(31,119,180)"/>
               <rect x="1.529680365296804" y="100.0" width="1.529680365296804" height="1.0e-10" fill="rgb(174,199,232)"/>
               <rect x="3.059360730593608" y="100.0" width="1.529680365296804" height="1.0e-10" fill="rgb(255,127,14)"/>
          </g>
          <g transform="translate(223.94520547945208,0)">
               <text pointer-events="none" y="3" dy=".71em" transform="translate(9.178082191780824,115) rotate(29.999999999999996)" fill="rgb(0,0,0)" text-anchor="middle" style="font:9px sans-serif">lld</text>
          </g>
          <g transform="translate(245.97260273972606,0)">
               <rect y="9.090909090909108" width="1.529680365296804" height="90.90909090909089" fill="rgb(31,119,180)"/>
               <rect x="1.529680365296804" y="100.0" width="1.529680365296804" height="1.0e-10" fill="rgb(174,199,232)"/>
               <rect x="3.059360730593608" y="100.0" width="1.529680365296804" height="1.0e-10" fill="rgb(255,127,14)"/>
          </g>
          <g transform="translate(245.97260273972606,0)">
               <text pointer-events="none" y="3" dy=".71em" transform="translate(9.178082191780824,115) rotate(29.999999999999996)" fill="rgb(0,0,0)" text-anchor="middle" style="font:9px sans-serif">lli</text>
          </g>
     </g>
     <g transform="translate(50,10)">
          <text pointer-events="none" dy=".35em" transform="translate(-40,60.0) rotate(-90.0)" fill="rgb(0,0,0)" text-anchor="middle" style="font:9px sans-serif">Percent Overhead</text>
     </g>
     <g transform="translate(50,10)">
          <line shape-rendering="crispEdges" x1="0" y1="100.0" x2="288" y2="100.0" stroke="rgb(0,0,0)" stroke-width="1"/>
          <line shape-rendering="crispEdges" x1="0" y1="77.23304103111347" x2="288" y2="77.23304103111347" stroke="rgb(255,255,255)" stroke-opacity="0.3" stroke-width="1"/>
          <line shape-rendering="crispEdges" x1="0" y1="54.466082062226945" x2="288" y2="54.466082062226945" stroke="rgb(255,255,255)" stroke-opacity="0.3" stroke-width="1"/>
          <line shape-rendering="crispEdges" x1="0" y1="31.699123093340418" x2="288" y2="31.699123093340418" stroke="rgb(255,255,255)" stroke-opacity="0.3" stroke-width="1"/>
          <line shape-rendering="crispEdges" x1="0" y1="8.932164124453891" x2="288" y2="8.932164124453891" stroke="rgb(255,255,255)" stroke-opacity="0.3" stroke-width="1"/>
     </g>
     <g transform="translate(50,10)">
          <line shape-rendering="crispEdges" x1="0" y1="100.0" x2="10" y2="100.0" stroke="rgb(0,0,0)" stroke-width="1"/>
          <line shape-rendering="crispEdges" x1="0" y1="77.23304103111347" x2="10" y2="77.23304103111347" stroke="rgb(0,0,0)" stroke-width="1"/>
          <line shape-rendering="crispEdges" x1="0" y1="54.466082062226945" x2="10" y2="54.466082062226945" stroke="rgb(0,0,0)" stroke-width="1"/>
          <line shape-rendering="crispEdges" x1="0" y1="31.699123093340418" x2="10" y2="31.699123093340418" stroke="rgb(0,0,0)" stroke-width="1"/>
          <line shape-rendering="crispEdges" x1="0" y1="8.932164124453891" x2="10" y2="8.932164124453891" stroke="rgb(0,0,0)" stroke-width="1"/>
     </g>
     <g transform="translate(50,10)">
          <text pointer-events="none" x="-3" dy=".35em" transform="translate(0,100.0)" fill="rgb(0,0,0)" text-anchor="end">0</text>
          <text pointer-events="none" x="-3" dy=".35em" transform="translate(0,77.23304103111347)" fill="rgb(0,0,0)" text-anchor="end">1</text>
          <text pointer-events="none" x="-3" dy=".35em" transform="translate(0,54.466082062226945)" fill="rgb(0,0,0)" text-anchor="end">2</text>
          <text pointer-events="none" x="-3" dy=".35em" transform="translate(0,31.699123093340418)" fill="rgb(0,0,0)" text-anchor="end">3</text>
          <text pointer-events="none" x="-3" dy=".35em" transform="translate(0,8.932164124453891)" fill="rgb(0,0,0)" text-anchor="end">4</text>
     </g>
     <g transform="translate(50,10)">
          <circle fill="rgb(31,119,180)" stroke="rgb(31,119,180)" cx="270" cy="85" r="4.47213595499958"/>
          <circle fill="rgb(174,199,232)" stroke="rgb(31,119,180)" cx="270" cy="75" r="4.47213595499958"/>
          <circle fill="rgb(255,127,14)" stroke="rgb(31,119,180)" cx="270" cy="65" r="4.47213595499958"/>
     </g>
     <g transform="translate(50,10)">
          <text pointer-events="none" x="-3" dy=".35em" transform="translate(288,85)" fill="rgb(0,0,0)" text-anchor="end">4</text>
          <text pointer-events="none" x="-3" dy=".35em" transform="translate(288,75)" fill="rgb(0,0,0)" text-anchor="end">6</text>
          <text pointer-events="none" x="-3" dy=".35em" transform="translate(288,65)" fill="rgb(0,0,0)" text-anchor="end">8</text>
     </g>
</svg>
