<svg xmlns="http://www.w3.org/2000/svg" xmlns:xlink="http://www.w3.org/1999/xlink" font-size="10px" font-family="sans-serif" fill="none" stroke="none" stroke-width="1.5" width="343" height="150">
     <g transform="translate(50,10)">
          <g transform="translate(3.6712328767123283,0)">
               <rect y="60.831604072610475" width="1.529680365296804" height="39.168395927389525" fill="rgb(31,119,180)"/>
               <rect x="1.529680365296804" y="100.0" width="1.529680365296804" height="1.0e-10" fill="rgb(174,199,232)"/>
               <rect x="3.059360730593608" y="100.0" width="1.529680365296804" height="1.0e-10" fill="rgb(255,127,14)"/>
               <rect x="4.589041095890412" y="100.0" width="1.529680365296804" height="1.0e-10" fill="rgb(255,187,120)"/>
          </g>
          <g transform="translate(3.6712328767123283,0)">
               <text pointer-events="none" y="3" dy=".71em" transform="translate(9.178082191780824,115) rotate(29.999999999999996)" fill="rgb(0,0,0)" text-anchor="middle" style="font:9px sans-serif">hhd</text>
          </g>
          <g transform="translate(25.698630136986303,0)">
               <rect y="100.0" width="1.529680365296804" height="1.0e-10" fill="rgb(31,119,180)"/>
               <rect x="1.529680365296804" y="100.0" width="1.529680365296804" height="1.0e-10" fill="rgb(174,199,232)"/>
               <rect x="3.059360730593608" y="100.0" width="1.529680365296804" height="1.0e-10" fill="rgb(255,127,14)"/>
               <rect x="4.589041095890412" y="100.0" width="1.529680365296804" height="1.0e-10" fill="rgb(255,187,120)"/>
          </g>
          <g transform="translate(25.698630136986303,0)">
               <text pointer-events="none" y="3" dy=".71em" transform="translate(9.178082191780824,115) rotate(29.999999999999996)" fill="rgb(0,0,0)" text-anchor="middle" style="font:9px sans-serif">hhn</text>
          </g>
          <g transform="translate(47.72602739726028,0)">
               <rect y="51.23986275210544" width="1.529680365296804" height="48.760137247894555" fill="rgb(31,119,180)"/>
               <rect x="1.529680365296804" y="9.090909090909093" width="1.529680365296804" height="90.9090909090909" fill="rgb(174,199,232)"/>
               <rect x="3.059360730593608" y="100.0" width="1.529680365296804" height="1.0e-10" fill="rgb(255,127,14)"/>
               <rect x="4.589041095890412" y="100.0" width="1.529680365296804" height="1.0e-10" fill="rgb(255,187,120)"/>
          </g>
          <g transform="translate(47.72602739726028,0)">
               <text pointer-events="none" y="3" dy=".71em" transform="translate(9.178082191780824,115) rotate(29.999999999999996)" fill="rgb(0,0,0)" text-anchor="middle" style="font:9px sans-serif">hhi</text>
          </g>
          <g transform="translate(69.75342465753425,0)">
               <rect y="100.0" width="1.529680365296804" height="1.0e-10" fill="rgb(31,119,180)"/>
               <rect x="1.529680365296804" y="100.0" width="1.529680365296804" height="1.0e-10" fill="rgb(174,199,232)"/>
               <rect x="3.059360730593608" y="100.0" width="1.529680365296804" height="1.0e-10" fill="rgb(255,127,14)"/>
               <rect x="4.589041095890412" y="100.0" width="1.529680365296804" height="1.0e-10" fill="rgb(255,187,120)"/>
          </g>
          <g transform="translate(69.75342465753425,0)">
               <text pointer-events="none" y="3" dy=".71em" transform="translate(9.178082191780824,115) rotate(29.999999999999996)" fill="rgb(0,0,0)" text-anchor="middle" style="font:9px sans-serif">hli</text>
          </g>
          <g transform="translate(91.78082191780823,0)">
               <rect y="100.0" width="1.529680365296804" height="1.0e-10" fill="rgb(31,119,180)"/>
               <rect x="1.529680365296804" y="100.0" width="1.529680365296804" height="1.0e-10" fill="rgb(174,199,232)"/>
               <rect x="3.059360730593608" y="100.0" width="1.529680365296804" height="1.0e-10" fill="rgb(255,127,14)"/>
               <rect x="4.589041095890412" y="100.0" width="1.529680365296804" height="1.0e-10" fill="rgb(255,187,120)"/>
          </g>
          <g transform="translate(91.78082191780823,0)">
               <text pointer-events="none" y="3" dy=".71em" transform="translate(9.178082191780824,115) rotate(29.999999999999996)" fill="rgb(0,0,0)" text-anchor="middle" style="font:9px sans-serif">hld</text>
          </g>
          <g transform="translate(113.8082191780822,0)">
               <rect y="71.17661884407954" width="1.529680365296804" height="28.82338115592045" fill="rgb(31,119,180)"/>
               <rect x="1.529680365296804" y="100.0" width="1.529680365296804" height="1.0e-10" fill="rgb(174,199,232)"/>
               <rect x="3.059360730593608" y="100.0" width="1.529680365296804" height="1.0e-10" fill="rgb(255,127,14)"/>
               <rect x="4.589041095890412" y="100.0" width="1.529680365296804" height="1.0e-10" fill="rgb(255,187,120)"/>
          </g>
          <g transform="translate(113.8082191780822,0)">
               <text pointer-events="none" y="3" dy=".71em" transform="translate(9.178082191780824,115) rotate(29.999999999999996)" fill="rgb(0,0,0)" text-anchor="middle" style="font:9px sans-serif">hmi</text>
          </g>
          <g transform="translate(135.8356164383562,0)">
               <rect y="90.55156639208488" width="1.529680365296804" height="9.448433607915115" fill="rgb(31,119,180)"/>
               <rect x="1.529680365296804" y="100.0" width="1.529680365296804" height="1.0e-10" fill="rgb(174,199,232)"/>
               <rect x="3.059360730593608" y="100.0" width="1.529680365296804" height="1.0e-10" fill="rgb(255,127,14)"/>
               <rect x="4.589041095890412" y="100.0" width="1.529680365296804" height="1.0e-10" fill="rgb(255,187,120)"/>
          </g>
          <g transform="translate(135.8356164383562,0)">
               <text pointer-events="none" y="3" dy=".71em" transform="translate(9.178082191780824,115) rotate(29.999999999999996)" fill="rgb(0,0,0)" text-anchor="middle" style="font:9px sans-serif">hmd</text>
          </g>
          <g transform="translate(157.86301369863017,0)">
               <rect y="100.0" width="1.529680365296804" height="1.0e-10" fill="rgb(31,119,180)"/>
               <rect x="1.529680365296804" y="100.0" width="1.529680365296804" height="1.0e-10" fill="rgb(174,199,232)"/>
               <rect x="3.059360730593608" y="100.0" width="1.529680365296804" height="1.0e-10" fill="rgb(255,127,14)"/>
               <rect x="4.589041095890412" y="100.0" width="1.529680365296804" height="1.0e-10" fill="rgb(255,187,120)"/>
          </g>
          <g transform="translate(157.86301369863017,0)">
               <text pointer-events="none" y="3" dy=".71em" transform="translate(9.178082191780824,115) rotate(29.999999999999996)" fill="rgb(0,0,0)" text-anchor="middle" style="font:9px sans-serif">mmi</text>
          </g>
          <g transform="translate(179.89041095890414,0)">
               <rect y="91.40387978857768" width="1.529680365296804" height="8.596120211422313" fill="rgb(31,119,180)"/>
               <rect x="1.529680365296804" y="82.60301366302726" width="1.529680365296804" height="17.39698633697274" fill="rgb(174,199,232)"/>
               <rect x="3.059360730593608" y="100.0" width="1.529680365296804" height="1.0e-10" fill="rgb(255,127,14)"/>
               <rect x="4.589041095890412" y="100.0" width="1.529680365296804" height="1.0e-10" fill="rgb(255,187,120)"/>
          </g>
          <g transform="translate(179.89041095890414,0)">
               <text pointer-events="none" y="3" dy=".71em" transform="translate(9.178082191780824,115) rotate(29.999999999999996)" fill="rgb(0,0,0)" text-anchor="middle" style="font:9px sans-serif">mmd</text>
          </g>
          <g transform="translate(201.9178082191781,0)">
               <rect y="93.59592988146086" width="1.529680365296804" height="6.40407011853914" fill="rgb(31,119,180)"/>
               <rect x="1.529680365296804" y="87.17425737508556" width="1.529680365296804" height="12.82574262491444" fill="rgb(174,199,232)"/>
               <rect x="3.059360730593608" y="100.0" width="1.529680365296804" height="1.0e-10" fill="rgb(255,127,14)"/>
               <rect x="4.589041095890412" y="100.0" width="1.529680365296804" height="1.0e-10" fill="rgb(255,187,120)"/>
          </g>
          <g transform="translate(201.9178082191781,0)">
               <text pointer-events="none" y="3" dy=".71em" transform="translate(9.178082191780824,115) rotate(29.999999999999996)" fill="rgb(0,0,0)" text-anchor="middle" style="font:9px sans-serif">llp</text>
          </g>
          <g transform="translate(223.94520547945208,0)">
               <rect y="90.460759999715" width="1.529680365296804" height="9.539240000285007" fill="rgb(31,119,180)"/>
               <rect x="1.529680365296804" y="80.468810487504" width="1.529680365296804" height="19.531189512496002" fill="rgb(174,199,232)"/>
               <rect x="3.059360730593608" y="100.0" width="1.529680365296804" height="1.0e-10" fill="rgb(255,127,14)"/>
               <rect x="4.589041095890412" y="100.0" width="1.529680365296804" height="1.0e-10" fill="rgb(255,187,120)"/>
          </g>
          <g transform="translate(223.94520547945208,0)">
               <text pointer-events="none" y="3" dy=".71em" transform="translate(9.178082191780824,115) rotate(29.999999999999996)" fill="rgb(0,0,0)" text-anchor="middle" style="font:9px sans-serif">lld</text>
          </g>
          <g transform="translate(245.97260273972606,0)">
               <rect y="93.59691487633108" width="1.529680365296804" height="6.403085123668921" fill="rgb(31,119,180)"/>
               <rect x="1.529680365296804" y="87.1911425672027" width="1.529680365296804" height="12.808857432797296" fill="rgb(174,199,232)"/>
               <rect x="3.059360730593608" y="100.0" width="1.529680365296804" height="1.0e-10" fill="rgb(255,127,14)"/>
               <rect x="4.589041095890412" y="100.0" width="1.529680365296804" height="1.0e-10" fill="rgb(255,187,120)"/>
          </g>
          <g transform="translate(245.97260273972606,0)">
               <text pointer-events="none" y="3" dy=".71em" transform="translate(9.178082191780824,115) rotate(29.999999999999996)" fill="rgb(0,0,0)" text-anchor="middle" style="font:9px sans-serif">lli</text>
          </g>
     </g>
     <g transform="translate(50,10)">
          <text pointer-events="none" dy=".35em" transform="translate(-40,60.0) rotate(-90.0)" fill="rgb(0,0,0)" text-anchor="middle" style="font:9px sans-serif">Percent Overhead</text>
     </g>
     <g transform="translate(50,10)">
          <line shape-rendering="crispEdges" x1="0" y1="100.0" x2="288" y2="100.0" stroke="rgb(0,0,0)" stroke-width="1"/>
          <line shape-rendering="crispEdges" x1="0" y1="83.99423134663726" x2="288" y2="83.99423134663726" stroke="rgb(255,255,255)" stroke-opacity="0.3" stroke-width="1"/>
          <line shape-rendering="crispEdges" x1="0" y1="67.98846269327453" x2="288" y2="67.98846269327453" stroke="rgb(255,255,255)" stroke-opacity="0.3" stroke-width="1"/>
          <line shape-rendering="crispEdges" x1="0" y1="51.98269403991179" x2="288" y2="51.98269403991179" stroke="rgb(255,255,255)" stroke-opacity="0.3" stroke-width="1"/>
          <line shape-rendering="crispEdges" x1="0" y1="35.97692538654907" x2="288" y2="35.97692538654907" stroke="rgb(255,255,255)" stroke-opacity="0.3" stroke-width="1"/>
          <line shape-rendering="crispEdges" x1="0" y1="19.971156733186334" x2="288" y2="19.971156733186334" stroke="rgb(255,255,255)" stroke-opacity="0.3" stroke-width="1"/>
          <line shape-rendering="crispEdges" x1="0" y1="3.9653880798235974" x2="288" y2="3.9653880798235974" stroke="rgb(255,255,255)" stroke-opacity="0.3" stroke-width="1"/>
     </g>
     <g transform="translate(50,10)">
          <line shape-rendering="crispEdges" x1="0" y1="100.0" x2="10" y2="100.0" stroke="rgb(0,0,0)" stroke-width="1"/>
          <line shape-rendering="crispEdges" x1="0" y1="83.99423134663726" x2="10" y2="83.99423134663726" stroke="rgb(0,0,0)" stroke-width="1"/>
          <line shape-rendering="crispEdges" x1="0" y1="67.98846269327453" x2="10" y2="67.98846269327453" stroke="rgb(0,0,0)" stroke-width="1"/>
          <line shape-rendering="crispEdges" x1="0" y1="51.98269403991179" x2="10" y2="51.98269403991179" stroke="rgb(0,0,0)" stroke-width="1"/>
          <line shape-rendering="crispEdges" x1="0" y1="35.97692538654907" x2="10" y2="35.97692538654907" stroke="rgb(0,0,0)" stroke-width="1"/>
          <line shape-rendering="crispEdges" x1="0" y1="19.971156733186334" x2="10" y2="19.971156733186334" stroke="rgb(0,0,0)" stroke-width="1"/>
          <line shape-rendering="crispEdges" x1="0" y1="3.9653880798235974" x2="10" y2="3.9653880798235974" stroke="rgb(0,0,0)" stroke-width="1"/>
     </g>
     <g transform="translate(50,10)">
          <text pointer-events="none" x="-3" dy=".35em" transform="translate(0,100.0)" fill="rgb(0,0,0)" text-anchor="end">0</text>
          <text pointer-events="none" x="-3" dy=".35em" transform="translate(0,83.99423134663726)" fill="rgb(0,0,0)" text-anchor="end">5</text>
          <text pointer-events="none" x="-3" dy=".35em" transform="translate(0,67.98846269327453)" fill="rgb(0,0,0)" text-anchor="end">10</text>
          <text pointer-events="none" x="-3" dy=".35em" transform="translate(0,51.98269403991179)" fill="rgb(0,0,0)" text-anchor="end">15</text>
          <text pointer-events="none" x="-3" dy=".35em" transform="translate(0,35.97692538654907)" fill="rgb(0,0,0)" text-anchor="end">20</text>
          <text pointer-events="none" x="-3" dy=".35em" transform="translate(0,19.971156733186334)" fill="rgb(0,0,0)" text-anchor="end">25</text>
          <text pointer-events="none" x="-3" dy=".35em" transform="translate(0,3.9653880798235974)" fill="rgb(0,0,0)" text-anchor="end">30</text>
     </g>
     <g transform="translate(50,10)">
          <circle fill="rgb(31,119,180)" stroke="rgb(31,119,180)" cx="270" cy="85" r="4.47213595499958"/>
          <circle fill="rgb(174,199,232)" stroke="rgb(31,119,180)" cx="270" cy="75" r="4.47213595499958"/>
          <circle fill="rgb(255,127,14)" stroke="rgb(31,119,180)" cx="270" cy="65" r="4.47213595499958"/>
          <circle fill="rgb(255,187,120)" stroke="rgb(31,119,180)" cx="270" cy="55" r="4.47213595499958"/>
     </g>
     <g transform="translate(50,10)">
          <text pointer-events="none" x="-3" dy=".35em" transform="translate(288,85)" fill="rgb(0,0,0)" text-anchor="end">2</text>
          <text pointer-events="none" x="-3" dy=".35em" transform="translate(288,75)" fill="rgb(0,0,0)" text-anchor="end">4</text>
          <text pointer-events="none" x="-3" dy=".35em" transform="translate(288,65)" fill="rgb(0,0,0)" text-anchor="end">6</text>
          <text pointer-events="none" x="-3" dy=".35em" transform="translate(288,55)" fill="rgb(0,0,0)" text-anchor="end">8</text>
     </g>
</svg>
