<svg xmlns="http://www.w3.org/2000/svg" xmlns:xlink="http://www.w3.org/1999/xlink" font-size="10px" font-family="sans-serif" fill="none" stroke="none" stroke-width="1.5" width="343" height="150">
     <g transform="translate(50,10)">
          <g transform="translate(3.6712328767123283,0)">
               <rect y="100.0" width="1.529680365296804" height="1.0e-10" fill="rgb(31,119,180)"/>
               <rect x="1.529680365296804" y="100.0" width="1.529680365296804" height="1.0e-10" fill="rgb(174,199,232)"/>
               <rect x="3.059360730593608" y="100.0" width="1.529680365296804" height="1.0e-10" fill="rgb(255,127,14)"/>
               <rect x="4.589041095890412" y="100.0" width="1.529680365296804" height="1.0e-10" fill="rgb(255,187,120)"/>
          </g>
          <g transform="translate(3.6712328767123283,0)">
               <text pointer-events="none" y="3" dy=".71em" transform="translate(9.178082191780824,115) rotate(29.999999999999996)" fill="rgb(0,0,0)" text-anchor="middle" style="font:9px sans-serif">hhd</text>
          </g>
          <g transform="translate(25.698630136986303,0)">
               <rect y="100.0" width="1.529680365296804" height="1.0e-10" fill="rgb(31,119,180)"/>
               <rect x="1.529680365296804" y="100.0" width="1.529680365296804" height="1.0e-10" fill="rgb(174,199,232)"/>
               <rect x="3.059360730593608" y="100.0" width="1.529680365296804" height="1.0e-10" fill="rgb(255,127,14)"/>
               <rect x="4.589041095890412" y="100.0" width="1.529680365296804" height="1.0e-10" fill="rgb(255,187,120)"/>
          </g>
          <g transform="translate(25.698630136986303,0)">
               <text pointer-events="none" y="3" dy=".71em" transform="translate(9.178082191780824,115) rotate(29.999999999999996)" fill="rgb(0,0,0)" text-anchor="middle" style="font:9px sans-serif">hhn</text>
          </g>
          <g transform="translate(47.72602739726028,0)">
               <rect y="100.0" width="1.529680365296804" height="1.0e-10" fill="rgb(31,119,180)"/>
               <rect x="1.529680365296804" y="100.0" width="1.529680365296804" height="1.0e-10" fill="rgb(174,199,232)"/>
               <rect x="3.059360730593608" y="100.0" width="1.529680365296804" height="1.0e-10" fill="rgb(255,127,14)"/>
               <rect x="4.589041095890412" y="100.0" width="1.529680365296804" height="1.0e-10" fill="rgb(255,187,120)"/>
          </g>
          <g transform="translate(47.72602739726028,0)">
               <text pointer-events="none" y="3" dy=".71em" transform="translate(9.178082191780824,115) rotate(29.999999999999996)" fill="rgb(0,0,0)" text-anchor="middle" style="font:9px sans-serif">hhi</text>
          </g>
          <g transform="translate(69.75342465753425,0)">
               <rect y="100.0" width="1.529680365296804" height="1.0e-10" fill="rgb(31,119,180)"/>
               <rect x="1.529680365296804" y="100.0" width="1.529680365296804" height="1.0e-10" fill="rgb(174,199,232)"/>
               <rect x="3.059360730593608" y="100.0" width="1.529680365296804" height="1.0e-10" fill="rgb(255,127,14)"/>
               <rect x="4.589041095890412" y="100.0" width="1.529680365296804" height="1.0e-10" fill="rgb(255,187,120)"/>
          </g>
          <g transform="translate(69.75342465753425,0)">
               <text pointer-events="none" y="3" dy=".71em" transform="translate(9.178082191780824,115) rotate(29.999999999999996)" fill="rgb(0,0,0)" text-anchor="middle" style="font:9px sans-serif">hli</text>
          </g>
          <g transform="translate(91.78082191780823,0)">
               <rect y="100.0" width="1.529680365296804" height="1.0e-10" fill="rgb(31,119,180)"/>
               <rect x="1.529680365296804" y="100.0" width="1.529680365296804" height="1.0e-10" fill="rgb(174,199,232)"/>
               <rect x="3.059360730593608" y="100.0" width="1.529680365296804" height="1.0e-10" fill="rgb(255,127,14)"/>
               <rect x="4.589041095890412" y="100.0" width="1.529680365296804" height="1.0e-10" fill="rgb(255,187,120)"/>
          </g>
          <g transform="translate(91.78082191780823,0)">
               <text pointer-events="none" y="3" dy=".71em" transform="translate(9.178082191780824,115) rotate(29.999999999999996)" fill="rgb(0,0,0)" text-anchor="middle" style="font:9px sans-serif">hld</text>
          </g>
          <g transform="translate(113.8082191780822,0)">
               <rect y="100.0" width="1.529680365296804" height="1.0e-10" fill="rgb(31,119,180)"/>
               <rect x="1.529680365296804" y="100.0" width="1.529680365296804" height="1.0e-10" fill="rgb(174,199,232)"/>
               <rect x="3.059360730593608" y="100.0" width="1.529680365296804" height="1.0e-10" fill="rgb(255,127,14)"/>
               <rect x="4.589041095890412" y="100.0" width="1.529680365296804" height="1.0e-10" fill="rgb(255,187,120)"/>
          </g>
          <g transform="translate(113.8082191780822,0)">
               <text pointer-events="none" y="3" dy=".71em" transform="translate(9.178082191780824,115) rotate(29.999999999999996)" fill="rgb(0,0,0)" text-anchor="middle" style="font:9px sans-serif">hmi</text>
          </g>
          <g transform="translate(135.8356164383562,0)">
               <rect y="100.0" width="1.529680365296804" height="1.0e-10" fill="rgb(31,119,180)"/>
               <rect x="1.529680365296804" y="100.0" width="1.529680365296804" height="1.0e-10" fill="rgb(174,199,232)"/>
               <rect x="3.059360730593608" y="100.0" width="1.529680365296804" height="1.0e-10" fill="rgb(255,127,14)"/>
               <rect x="4.589041095890412" y="100.0" width="1.529680365296804" height="1.0e-10" fill="rgb(255,187,120)"/>
          </g>
          <g transform="translate(135.8356164383562,0)">
               <text pointer-events="none" y="3" dy=".71em" transform="translate(9.178082191780824,115) rotate(29.999999999999996)" fill="rgb(0,0,0)" text-anchor="middle" style="font:9px sans-serif">hmd</text>
          </g>
          <g transform="translate(157.86301369863017,0)">
               <rect y="100.0" width="1.529680365296804" height="1.0e-10" fill="rgb(31,119,180)"/>
               <rect x="1.529680365296804" y="100.0" width="1.529680365296804" height="1.0e-10" fill="rgb(174,199,232)"/>
               <rect x="3.059360730593608" y="100.0" width="1.529680365296804" height="1.0e-10" fill="rgb(255,127,14)"/>
               <rect x="4.589041095890412" y="100.0" width="1.529680365296804" height="1.0e-10" fill="rgb(255,187,120)"/>
          </g>
          <g transform="translate(157.86301369863017,0)">
               <text pointer-events="none" y="3" dy=".71em" transform="translate(9.178082191780824,115) rotate(29.999999999999996)" fill="rgb(0,0,0)" text-anchor="middle" style="font:9px sans-serif">mmi</text>
          </g>
          <g transform="translate(179.89041095890414,0)">
               <rect y="99.19635614633606" width="1.529680365296804" height="0.8036438536639413" fill="rgb(31,119,180)"/>
               <rect x="1.529680365296804" y="98.39271229267212" width="1.529680365296804" height="1.6072877073278826" fill="rgb(174,199,232)"/>
               <rect x="3.059360730593608" y="97.58906843900817" width="1.529680365296804" height="2.4109315609918243" fill="rgb(255,127,14)"/>
               <rect x="4.589041095890412" y="96.78542458534423" width="1.529680365296804" height="3.2145754146557652" fill="rgb(255,187,120)"/>
          </g>
          <g transform="translate(179.89041095890414,0)">
               <text pointer-events="none" y="3" dy=".71em" transform="translate(9.178082191780824,115) rotate(29.999999999999996)" fill="rgb(0,0,0)" text-anchor="middle" style="font:9px sans-serif">mmd</text>
          </g>
          <g transform="translate(201.9178082191781,0)">
               <rect y="79.69921624760515" width="1.529680365296804" height="20.300783752394853" fill="rgb(31,119,180)"/>
               <rect x="1.529680365296804" y="59.3984324952103" width="1.529680365296804" height="40.601567504789706" fill="rgb(174,199,232)"/>
               <rect x="3.059360730593608" y="39.09764874281544" width="1.529680365296804" height="60.90235125718456" fill="rgb(255,127,14)"/>
               <rect x="4.589041095890412" y="18.796864990420588" width="1.529680365296804" height="81.20313500957941" fill="rgb(255,187,120)"/>
          </g>
          <g transform="translate(201.9178082191781,0)">
               <text pointer-events="none" y="3" dy=".71em" transform="translate(9.178082191780824,115) rotate(29.999999999999996)" fill="rgb(0,0,0)" text-anchor="middle" style="font:9px sans-serif">llp</text>
          </g>
          <g transform="translate(223.94520547945208,0)">
               <rect y="89.67108490651844" width="1.529680365296804" height="10.328915093481553" fill="rgb(31,119,180)"/>
               <rect x="1.529680365296804" y="79.34216981303689" width="1.529680365296804" height="20.657830186963107" fill="rgb(174,199,232)"/>
               <rect x="3.059360730593608" y="69.01325471955533" width="1.529680365296804" height="30.986745280444662" fill="rgb(255,127,14)"/>
               <rect x="4.589041095890412" y="58.68433962607378" width="1.529680365296804" height="41.315660373926214" fill="rgb(255,187,120)"/>
          </g>
          <g transform="translate(223.94520547945208,0)">
               <text pointer-events="none" y="3" dy=".71em" transform="translate(9.178082191780824,115) rotate(29.999999999999996)" fill="rgb(0,0,0)" text-anchor="middle" style="font:9px sans-serif">lld</text>
          </g>
          <g transform="translate(245.97260273972606,0)">
               <rect y="77.27272727272728" width="1.529680365296804" height="22.727272727272727" fill="rgb(31,119,180)"/>
               <rect x="1.529680365296804" y="54.54545454545455" width="1.529680365296804" height="45.45454545454545" fill="rgb(174,199,232)"/>
               <rect x="3.059360730593608" y="31.818181818181827" width="1.529680365296804" height="68.18181818181817" fill="rgb(255,127,14)"/>
               <rect x="4.589041095890412" y="9.090909090909093" width="1.529680365296804" height="90.9090909090909" fill="rgb(255,187,120)"/>
          </g>
          <g transform="translate(245.97260273972606,0)">
               <text pointer-events="none" y="3" dy=".71em" transform="translate(9.178082191780824,115) rotate(29.999999999999996)" fill="rgb(0,0,0)" text-anchor="middle" style="font:9px sans-serif">lli</text>
          </g>
     </g>
     <g transform="translate(50,10)">
          <text pointer-events="none" dy=".35em" transform="translate(-40,60.0) rotate(-90.0)" fill="rgb(0,0,0)" text-anchor="middle" style="font:9px sans-serif">Percent Overhead</text>
     </g>
     <g transform="translate(50,10)">
          <line shape-rendering="crispEdges" x1="0" y1="100.0" x2="288" y2="100.0" stroke="rgb(0,0,0)" stroke-width="1"/>
          <line shape-rendering="crispEdges" x1="0" y1="77.16404674265198" x2="288" y2="77.16404674265198" stroke="rgb(255,255,255)" stroke-opacity="0.3" stroke-width="1"/>
          <line shape-rendering="crispEdges" x1="0" y1="54.32809348530395" x2="288" y2="54.32809348530395" stroke="rgb(255,255,255)" stroke-opacity="0.3" stroke-width="1"/>
          <line shape-rendering="crispEdges" x1="0" y1="31.49214022795593" x2="288" y2="31.49214022795593" stroke="rgb(255,255,255)" stroke-opacity="0.3" stroke-width="1"/>
          <line shape-rendering="crispEdges" x1="0" y1="8.65618697060792" x2="288" y2="8.65618697060792" stroke="rgb(255,255,255)" stroke-opacity="0.3" stroke-width="1"/>
     </g>
     <g transform="translate(50,10)">
          <line shape-rendering="crispEdges" x1="0" y1="100.0" x2="10" y2="100.0" stroke="rgb(0,0,0)" stroke-width="1"/>
          <line shape-rendering="crispEdges" x1="0" y1="77.16404674265198" x2="10" y2="77.16404674265198" stroke="rgb(0,0,0)" stroke-width="1"/>
          <line shape-rendering="crispEdges" x1="0" y1="54.32809348530395" x2="10" y2="54.32809348530395" stroke="rgb(0,0,0)" stroke-width="1"/>
          <line shape-rendering="crispEdges" x1="0" y1="31.49214022795593" x2="10" y2="31.49214022795593" stroke="rgb(0,0,0)" stroke-width="1"/>
          <line shape-rendering="crispEdges" x1="0" y1="8.65618697060792" x2="10" y2="8.65618697060792" stroke="rgb(0,0,0)" stroke-width="1"/>
     </g>
     <g transform="translate(50,10)">
          <text pointer-events="none" x="-3" dy=".35em" transform="translate(0,100.0)" fill="rgb(0,0,0)" text-anchor="end">0</text>
          <text pointer-events="none" x="-3" dy=".35em" transform="translate(0,77.16404674265198)" fill="rgb(0,0,0)" text-anchor="end">2</text>
          <text pointer-events="none" x="-3" dy=".35em" transform="translate(0,54.32809348530395)" fill="rgb(0,0,0)" text-anchor="end">4</text>
          <text pointer-events="none" x="-3" dy=".35em" transform="translate(0,31.49214022795593)" fill="rgb(0,0,0)" text-anchor="end">6</text>
          <text pointer-events="none" x="-3" dy=".35em" transform="translate(0,8.65618697060792)" fill="rgb(0,0,0)" text-anchor="end">8</text>
     </g>
     <g transform="translate(50,10)">
          <circle fill="rgb(31,119,180)" stroke="rgb(31,119,180)" cx="270" cy="85" r="4.47213595499958"/>
          <circle fill="rgb(174,199,232)" stroke="rgb(31,119,180)" cx="270" cy="75" r="4.47213595499958"/>
          <circle fill="rgb(255,127,14)" stroke="rgb(31,119,180)" cx="270" cy="65" r="4.47213595499958"/>
          <circle fill="rgb(255,187,120)" stroke="rgb(31,119,180)" cx="270" cy="55" r="4.47213595499958"/>
     </g>
     <g transform="translate(50,10)">
          <text pointer-events="none" x="-3" dy=".35em" transform="translate(288,85)" fill="rgb(0,0,0)" text-anchor="end">2</text>
          <text pointer-events="none" x="-3" dy=".35em" transform="translate(288,75)" fill="rgb(0,0,0)" text-anchor="end">4</text>
          <text pointer-events="none" x="-3" dy=".35em" transform="translate(288,65)" fill="rgb(0,0,0)" text-anchor="end">6</text>
          <text pointer-events="none" x="-3" dy=".35em" transform="translate(288,55)" fill="rgb(0,0,0)" text-anchor="end">8</text>
     </g>
</svg>
